<svg width="390" height="71" viewBox="0 0 390 71" fill="none" xmlns="http://www.w3.org/2000/svg">
<g clip-path="url(#clip0_105_746)">
<path d="M231.367 54.6435L232.875 43.814H233.368L237.755 52.0631L242.257 43.814H242.767L244.024 54.6435C243.957 54.6435 243.897 54.6435 243.831 54.6376C243.765 54.6376 243.711 54.6258 243.657 54.614C243.603 54.614 243.549 54.614 243.501 54.6081C243.447 54.6081 243.393 54.5963 243.344 54.5845H243.122C243.092 54.5845 243.056 54.5845 243.026 54.6022C242.984 54.6022 242.948 54.6022 242.912 54.6081C242.882 54.6081 242.846 54.614 242.816 54.614C242.749 54.6258 242.683 54.6317 242.617 54.6376C242.551 54.6376 242.473 54.6435 242.389 54.6435L241.644 46.5185L237.509 54.3955H237.256L233.248 46.6484L232.503 54.6494C232.473 54.6494 232.436 54.6494 232.4 54.6435C232.364 54.6435 232.322 54.6317 232.28 54.6199C232.238 54.6081 232.19 54.6022 232.142 54.5963C232.094 54.5963 232.046 54.5904 231.992 54.5904H231.835C231.835 54.5904 231.817 54.6081 231.811 54.6081H231.787C231.745 54.6081 231.703 54.6081 231.667 54.614C231.631 54.614 231.595 54.6258 231.565 54.6376C231.535 54.6494 231.499 54.6553 231.469 54.6553H231.367V54.6435ZM246.307 43.814C246.361 43.8436 246.409 43.8672 246.458 43.8849C246.506 43.9026 246.56 43.9144 246.626 43.9262C246.68 43.938 246.74 43.9439 246.8 43.9439H247.179C247.179 43.9439 247.227 43.9439 247.257 43.938C247.287 43.938 247.323 43.9321 247.353 43.9321C247.419 43.9203 247.479 43.9085 247.533 43.8908C247.593 43.8731 247.642 43.8613 247.684 43.8495V54.6435C247.642 54.6435 247.593 54.6435 247.533 54.6376C247.473 54.6376 247.419 54.6258 247.365 54.614C247.335 54.614 247.299 54.614 247.269 54.6081C247.239 54.6081 247.209 54.6022 247.191 54.6022C247.161 54.5904 247.125 54.5845 247.095 54.5845H246.998C246.932 54.5845 246.872 54.5845 246.806 54.5904C246.74 54.5904 246.68 54.6022 246.614 54.614C246.548 54.6258 246.494 54.6317 246.446 54.6376C246.397 54.6376 246.349 54.6435 246.295 54.6435V43.814H246.307ZM250.61 54.6435V43.814H251.374L259.006 52.0631V43.814C259.036 43.8436 259.072 43.8672 259.108 43.8849C259.144 43.9026 259.187 43.9144 259.229 43.9262C259.271 43.938 259.319 43.9439 259.367 43.9439H259.643C259.643 43.9439 259.685 43.9439 259.709 43.938C259.733 43.938 259.751 43.9321 259.776 43.9321C259.83 43.9203 259.872 43.9085 259.908 43.8908C259.944 43.8731 259.98 43.8613 260.01 43.8495V54.6435H259.391L251.614 46.1583V54.6435C251.584 54.6435 251.548 54.6435 251.518 54.6376C251.488 54.6376 251.452 54.6258 251.404 54.614C251.362 54.6022 251.32 54.5963 251.284 54.5904C251.247 54.5904 251.205 54.5845 251.163 54.5845H251.097C251.097 54.5845 251.055 54.5845 251.031 54.6022C251.001 54.6022 250.971 54.6022 250.953 54.6081C250.929 54.6081 250.911 54.614 250.887 54.614C250.845 54.6258 250.797 54.6317 250.755 54.6376C250.707 54.6376 250.658 54.6435 250.604 54.6435H250.61ZM262.925 43.814C262.979 43.8436 263.027 43.8672 263.075 43.8849C263.123 43.9026 263.177 43.9144 263.243 43.9262C263.297 43.938 263.357 43.9439 263.418 43.9439H263.796C263.796 43.9439 263.844 43.9439 263.874 43.938C263.904 43.938 263.94 43.9321 263.97 43.9321C264.037 43.9203 264.097 43.9085 264.151 43.8908C264.211 43.8731 264.259 43.8613 264.301 43.8495V54.6435C264.259 54.6435 264.211 54.6435 264.151 54.6376C264.091 54.6376 264.037 54.6258 263.982 54.614C263.952 54.614 263.916 54.614 263.886 54.6081C263.856 54.6081 263.826 54.6022 263.808 54.6022C263.778 54.5904 263.742 54.5845 263.712 54.5845H263.616C263.55 54.5845 263.49 54.5845 263.424 54.5904C263.357 54.5963 263.297 54.6022 263.231 54.614C263.165 54.6258 263.111 54.6317 263.063 54.6376C263.015 54.6376 262.967 54.6435 262.913 54.6435V43.814H262.925ZM266.609 46.2823C266.675 45.8335 266.801 45.4438 266.993 45.119C267.186 44.7883 267.426 44.5226 267.727 44.3159C268.033 44.1093 268.346 43.9439 268.664 43.8258C268.983 43.7077 269.319 43.631 269.668 43.6015H269.914C269.914 43.6015 269.95 43.6015 269.968 43.5837H270.064C270.329 43.5837 270.581 43.6074 270.828 43.6487C271.074 43.69 271.309 43.755 271.543 43.8376C271.765 43.9085 271.958 44.003 272.114 44.1093C272.27 44.2156 272.402 44.3337 272.498 44.4636C272.432 44.5285 272.384 44.5935 272.342 44.6584C272.3 44.7234 272.264 44.8001 272.228 44.8828C272.198 44.9655 272.162 45.06 272.132 45.1721C272.102 45.2843 272.066 45.3965 272.036 45.5264V45.5501C272.036 45.5501 272.018 45.5737 272.018 45.5796V45.6504C272.018 45.6504 272 45.6682 272 45.6741V45.6977L271.747 45.6682C271.747 45.6682 271.723 45.6209 271.705 45.5796C271.687 45.5442 271.669 45.5028 271.651 45.4615C271.627 45.4083 271.603 45.3611 271.579 45.3139C271.555 45.2666 271.525 45.2253 271.489 45.184C271.417 45.0777 271.321 44.9832 271.212 44.8887C271.098 44.7942 270.972 44.7057 270.822 44.623C270.683 44.5403 270.521 44.4754 270.335 44.4281C270.149 44.3809 269.95 44.3573 269.74 44.3573C269.506 44.3573 269.289 44.4045 269.079 44.499C268.875 44.5935 268.676 44.7352 268.484 44.9182C268.292 45.1072 268.153 45.308 268.063 45.5264C267.973 45.7449 267.925 45.9752 267.925 46.2114V46.3826C267.925 46.3826 267.925 46.4063 267.943 46.4122V46.4771C267.967 46.6129 268.009 46.7487 268.075 46.8905C268.141 47.0322 268.231 47.1739 268.34 47.3215C268.454 47.4573 268.598 47.5872 268.76 47.7053C268.923 47.8234 269.121 47.9356 269.355 48.0419L271.122 48.7446C271.441 48.8922 271.717 49.0575 271.952 49.2465C272.186 49.4355 272.372 49.6421 272.511 49.8724C272.661 50.1027 272.769 50.3389 272.835 50.581C272.907 50.8231 272.937 51.0711 272.937 51.325V51.5435C272.937 51.5435 272.919 51.5789 272.919 51.5907V51.6203C272.877 52.0395 272.757 52.4351 272.559 52.8071C272.36 53.1791 272.09 53.5393 271.741 53.8877C271.393 54.2302 271.002 54.4841 270.575 54.6553C270.149 54.8207 269.668 54.9034 269.139 54.9034H268.869C268.869 54.9034 268.826 54.8856 268.802 54.8856H268.676C268.676 54.8856 268.634 54.8856 268.61 54.8679C268.58 54.8679 268.55 54.8679 268.532 54.862C268.508 54.862 268.49 54.8561 268.466 54.8561C268.262 54.8266 268.063 54.7794 267.871 54.7262C267.673 54.6672 267.48 54.6022 267.288 54.5313C267.096 54.4487 266.927 54.3601 266.789 54.2715C266.645 54.183 266.519 54.0944 266.398 53.9999H266.392C266.392 53.9999 266.386 53.9999 266.386 53.9822H266.368V53.9645C266.368 53.9645 266.35 53.9645 266.35 53.9586C266.392 53.8464 266.428 53.746 266.465 53.6515C266.495 53.557 266.519 53.4744 266.531 53.4035C266.543 53.3622 266.549 53.3208 266.555 53.2854C266.555 53.25 266.561 53.2087 266.561 53.1673C266.573 53.1378 266.579 53.1024 266.585 53.0669C266.585 53.0315 266.591 52.9902 266.591 52.9488V52.8957C266.591 52.8957 266.591 52.8603 266.609 52.8426V52.4706L266.861 52.441C267.138 52.8603 267.396 53.185 267.63 53.4271C267.871 53.6692 268.087 53.8169 268.292 53.8818C268.496 53.9527 268.682 54.0058 268.856 54.0353C269.031 54.0649 269.199 54.0826 269.355 54.0826C269.704 54.0826 270.01 54.0294 270.275 53.9291C270.539 53.8228 270.762 53.6633 270.942 53.4449C271.122 53.2264 271.254 52.9961 271.345 52.7599C271.435 52.5178 271.483 52.2698 271.495 52.01C271.495 51.8033 271.465 51.6025 271.405 51.4077C271.345 51.2128 271.26 51.0239 271.14 50.8349C271.032 50.6459 270.894 50.4865 270.72 50.3507C270.545 50.2149 270.341 50.1086 270.107 50.02L268.466 49.2524C267.997 49.0516 267.63 48.8391 267.36 48.6147C267.09 48.3844 266.915 48.1482 266.825 47.8943C266.753 47.6463 266.693 47.3865 266.651 47.1267C266.609 46.8668 266.585 46.6011 266.585 46.3295V46.3L266.609 46.2823ZM277.415 54.6435V44.5521C277.318 44.5758 277.21 44.5876 277.078 44.5935C276.946 44.5994 276.808 44.6112 276.651 44.6348C276.495 44.6466 276.333 44.6584 276.165 44.6761C276.002 44.6939 275.834 44.7116 275.666 44.7293C275.6 44.7411 275.54 44.747 275.485 44.7529C275.425 44.7529 275.371 44.7647 275.317 44.7765C275.263 44.7883 275.209 44.7942 275.149 44.8001C275.089 44.8001 275.035 44.806 274.981 44.806C274.872 44.8179 274.77 44.8297 274.668 44.8474C274.566 44.8651 274.47 44.8828 274.374 44.9005C274.277 44.9123 274.193 44.9241 274.121 44.93C274.049 44.9419 273.977 44.9537 273.917 44.9596C273.929 44.936 273.935 44.9123 273.941 44.8887C273.941 44.8651 273.953 44.8415 273.965 44.8179C273.965 44.7942 273.965 44.7765 273.971 44.7529C273.971 44.7293 273.983 44.7057 273.995 44.6761V44.5226C273.995 44.5226 273.995 44.499 274.013 44.4754V44.4104C274.013 44.3573 274.013 44.31 274.007 44.2628C274.007 44.2156 273.995 44.1742 273.983 44.127C273.971 44.0738 273.965 44.0266 273.959 43.9794C273.959 43.9321 273.941 43.8908 273.917 43.8436L282.295 43.814C282.283 43.8554 282.277 43.8908 282.271 43.9144C282.271 43.938 282.259 43.9617 282.247 43.9853C282.235 44.0089 282.229 44.0266 282.229 44.0502V44.1152C282.217 44.1447 282.21 44.1742 282.204 44.1919C282.204 44.2156 282.198 44.2333 282.198 44.2569V44.5285C282.198 44.5758 282.198 44.623 282.217 44.6761C282.229 44.7175 282.241 44.7647 282.259 44.806C282.277 44.8533 282.289 44.9005 282.301 44.9537C281.928 44.8887 281.567 44.8356 281.219 44.7883C280.87 44.7411 280.534 44.6998 280.215 44.6702C279.897 44.6407 279.62 44.6171 279.38 44.5994C279.139 44.5817 278.947 44.5758 278.797 44.5758V54.6376H278.725C278.725 54.6376 278.677 54.6376 278.653 54.6199C278.623 54.6199 278.593 54.6199 278.562 54.614C278.538 54.614 278.514 54.6081 278.49 54.6081C278.436 54.5963 278.382 54.5904 278.322 54.5845C278.262 54.5845 278.208 54.5786 278.154 54.5786H278.058C278.028 54.5786 277.998 54.5786 277.98 54.5963C277.949 54.5963 277.913 54.5963 277.883 54.6022C277.853 54.6022 277.817 54.6081 277.787 54.6081C277.721 54.6199 277.661 54.6258 277.595 54.6317C277.529 54.6317 277.469 54.6376 277.403 54.6376L277.415 54.6435ZM285.438 54.6435V43.938H291.195C291.183 43.9912 291.171 44.0325 291.165 44.0738C291.153 44.1093 291.141 44.1447 291.135 44.1742C291.135 44.186 291.135 44.1978 291.129 44.2156C291.129 44.2333 291.123 44.2451 291.123 44.2569C291.111 44.2805 291.105 44.2923 291.105 44.3041V44.5758C291.105 44.6112 291.105 44.6525 291.123 44.6939C291.123 44.7175 291.123 44.7352 291.129 44.7588C291.129 44.7824 291.141 44.8001 291.153 44.8238C291.165 44.8533 291.171 44.8828 291.177 44.9005C291.177 44.9241 291.189 44.9419 291.201 44.9655C291.045 44.936 290.883 44.9064 290.727 44.8887C290.57 44.8651 290.396 44.8533 290.216 44.8415C290.047 44.8297 289.873 44.8238 289.699 44.8179C289.525 44.8179 289.344 44.812 289.164 44.812H288.515C288.473 44.8238 288.431 44.8297 288.395 44.8297H287.752C287.71 44.8415 287.661 44.8474 287.619 44.8474H286.946V48.6265H289.332L290.829 48.5025C290.817 48.5556 290.805 48.597 290.787 48.6383C290.769 48.6737 290.757 48.7092 290.745 48.7387C290.733 48.78 290.727 48.8213 290.727 48.8568V49.0989C290.727 49.1284 290.727 49.1579 290.733 49.1756C290.733 49.1993 290.739 49.217 290.739 49.2406C290.751 49.2819 290.763 49.3292 290.781 49.3705C290.799 49.4177 290.811 49.465 290.823 49.5181L288.948 49.3646H286.946V53.7991C287.018 53.8228 287.103 53.8346 287.187 53.8464C287.271 53.8582 287.361 53.8641 287.457 53.8641C287.553 53.8759 287.655 53.8818 287.758 53.8818H288.743C288.785 53.8818 288.833 53.8818 288.887 53.8641H289.158C289.368 53.8523 289.579 53.8405 289.777 53.8346C289.981 53.8228 290.18 53.811 290.384 53.8051C290.576 53.7814 290.751 53.7637 290.907 53.7519C291.063 53.7342 291.207 53.7224 291.334 53.7106C291.322 53.7519 291.309 53.7991 291.291 53.8405C291.273 53.8877 291.261 53.935 291.249 53.9881C291.237 54.0294 291.231 54.0708 291.231 54.1121V54.3601C291.231 54.4014 291.231 54.4428 291.249 54.4841C291.261 54.5254 291.273 54.5609 291.291 54.5963C291.309 54.6258 291.322 54.6494 291.334 54.6613H285.45L285.438 54.6435ZM293.365 54.6435V43.814H297.247C297.776 43.8376 298.239 43.9085 298.642 44.0325C299.038 44.1565 299.363 44.3396 299.621 44.5817C299.874 44.8297 300.066 45.1131 300.192 45.4202C300.318 45.7272 300.384 46.0638 300.384 46.4299C300.384 46.796 300.336 47.103 300.234 47.3924C300.132 47.6817 299.976 47.9238 299.765 48.1364C299.561 48.3431 299.351 48.5261 299.122 48.6855C298.894 48.8391 298.66 48.969 298.413 49.0575C298.299 49.0989 298.185 49.1402 298.071 49.1815C297.956 49.2229 297.848 49.2524 297.728 49.276C297.62 49.3055 297.518 49.3292 297.41 49.3469C297.301 49.3646 297.205 49.3764 297.121 49.3882L301.382 54.6553H301.262C301.226 54.6553 301.184 54.6553 301.142 54.6376C301.1 54.6376 301.058 54.6376 301.021 54.6317C300.985 54.6317 300.949 54.6199 300.919 54.6081H300.619C300.619 54.6081 300.583 54.6081 300.571 54.5904H300.445C300.372 54.5904 300.294 54.5904 300.216 54.5963C300.138 54.5963 300.054 54.6081 299.97 54.6199C299.898 54.6317 299.82 54.6376 299.741 54.6435C299.663 54.6435 299.579 54.6494 299.495 54.6494L295.378 49.4768H294.867V54.6494H294.771C294.741 54.6494 294.705 54.6494 294.675 54.6317H294.633C294.633 54.6317 294.603 54.6317 294.591 54.614C294.567 54.614 294.555 54.614 294.543 54.6081C294.531 54.6081 294.519 54.6022 294.495 54.6022H294.266C294.266 54.6022 294.236 54.6022 294.224 54.5845H294.128C294.062 54.5845 294.002 54.5845 293.936 54.5904C293.87 54.5904 293.81 54.6022 293.743 54.614C293.677 54.6258 293.617 54.6317 293.551 54.6376C293.485 54.6376 293.425 54.6435 293.359 54.6435H293.365ZM294.861 48.8627C294.861 48.8627 294.903 48.8981 294.933 48.904C294.958 48.904 294.988 48.9099 295.024 48.9099H295.438C295.907 48.9099 296.316 48.8804 296.67 48.8154C297.025 48.7505 297.319 48.656 297.554 48.5202C297.8 48.3844 298.005 48.2427 298.167 48.0891C298.329 47.9356 298.461 47.7821 298.557 47.6109C298.63 47.4987 298.69 47.3806 298.738 47.2566C298.786 47.1385 298.816 47.0263 298.828 46.92C298.852 46.8078 298.864 46.7074 298.87 46.6247C298.87 46.5421 298.876 46.4712 298.876 46.424C298.876 46.3767 298.876 46.3118 298.858 46.2527C298.846 46.1878 298.834 46.1169 298.81 46.0343C298.798 45.9516 298.774 45.8689 298.732 45.7863C298.69 45.7036 298.642 45.615 298.587 45.5205C298.515 45.3847 298.407 45.2548 298.269 45.1308C298.131 45.0068 297.974 44.8887 297.794 44.7883C297.614 44.6761 297.398 44.5876 297.145 44.5403C296.893 44.4872 296.592 44.4636 296.256 44.4636L294.873 44.434V48.8686L294.861 48.8627ZM303.155 43.814C303.209 43.8436 303.257 43.8672 303.305 43.8849C303.353 43.9026 303.407 43.9144 303.474 43.9262C303.528 43.938 303.588 43.9439 303.648 43.9439H304.026C304.026 43.9439 304.075 43.9439 304.105 43.938C304.135 43.938 304.171 43.9321 304.201 43.9321C304.267 43.9203 304.327 43.9085 304.381 43.8908C304.441 43.8731 304.489 43.8613 304.531 43.8495V54.6435C304.489 54.6435 304.441 54.6435 304.381 54.6376C304.321 54.6376 304.267 54.6258 304.213 54.614C304.183 54.614 304.147 54.614 304.117 54.6081C304.087 54.6081 304.056 54.6022 304.038 54.6022C304.008 54.5904 303.972 54.5845 303.942 54.5845H303.846C303.78 54.5845 303.72 54.5845 303.654 54.5904C303.588 54.5904 303.528 54.6022 303.462 54.614C303.395 54.6258 303.341 54.6317 303.293 54.6376C303.245 54.6376 303.197 54.6435 303.143 54.6435V43.814H303.155ZM306.581 49.2347V48.969C306.581 48.9158 306.581 48.8627 306.587 48.8154C306.587 48.7623 306.599 48.7092 306.611 48.6619C306.677 48.036 306.851 47.4337 307.134 46.855C307.422 46.2764 307.819 45.7213 308.324 45.1899C308.822 44.6584 309.435 44.2628 310.169 43.9971C310.902 43.7314 311.749 43.6015 312.711 43.6015C313.684 43.631 314.52 43.755 315.217 43.9735C315.914 44.1919 316.473 44.5167 316.894 44.9419C317.32 45.3611 317.663 45.7981 317.933 46.2527C318.204 46.7133 318.396 47.1916 318.516 47.6876C318.54 47.7526 318.552 47.8116 318.564 47.8766C318.576 47.9415 318.588 47.9947 318.594 48.0478C318.606 48.1128 318.618 48.1718 318.625 48.2368C318.637 48.3017 318.649 48.3608 318.655 48.4257C318.679 48.5497 318.691 48.6737 318.697 48.7918C318.697 48.9099 318.709 49.028 318.721 49.1461V49.3469C318.721 50.209 318.57 50.9825 318.27 51.6675C317.969 52.3525 317.507 52.937 316.894 53.4271C316.281 53.9291 315.626 54.2952 314.928 54.5373C314.231 54.7794 313.498 54.8974 312.729 54.8974H312.458C312.32 54.8974 312.188 54.8974 312.056 54.8915C311.923 54.8915 311.785 54.8738 311.653 54.8502C311.515 54.8384 311.377 54.8207 311.238 54.7853C311.1 54.7557 310.962 54.7203 310.824 54.6908C310.295 54.5786 309.784 54.3778 309.297 54.0944C308.81 53.811 308.342 53.4567 307.897 53.0315C307.452 52.6064 307.122 52.0749 306.905 51.4431C306.689 50.8113 306.581 50.085 306.581 49.2642V49.2347ZM308.221 49.2347C308.221 50.0496 308.324 50.764 308.534 51.39C308.738 52.0159 309.057 52.5473 309.477 52.9843C309.904 53.4212 310.385 53.7519 310.926 53.9704C311.467 54.1889 312.068 54.3011 312.723 54.3011C313.318 54.3011 313.865 54.1889 314.369 53.9704C314.874 53.7519 315.319 53.4212 315.716 52.9843C316.118 52.5473 316.437 52.0159 316.671 51.39C316.906 50.764 317.05 50.0555 317.116 49.2642V49.0162C317.116 48.3372 317.014 47.7112 316.804 47.1385C316.599 46.5657 316.287 46.052 315.872 45.5914C315.445 45.1308 314.964 44.7883 314.418 44.558C313.871 44.3278 313.264 44.2156 312.597 44.2156C311.99 44.2156 311.461 44.31 310.998 44.499C310.535 44.688 310.145 44.9655 309.832 45.3257C309.513 45.7036 309.249 46.0933 309.027 46.4948C308.81 46.9023 308.636 47.3215 308.51 47.7585C308.48 47.8943 308.444 48.0242 308.414 48.1482C308.384 48.2722 308.354 48.3962 308.336 48.5202C308.312 48.6442 308.293 48.7682 308.281 48.8922C308.263 49.0162 308.245 49.1402 308.227 49.2524V49.2229L308.221 49.2347Z" fill="white"/>
<path d="M324.767 43.7963H328.751C329.28 43.8199 329.737 43.879 330.133 43.9912C330.53 44.0975 330.855 44.2569 331.107 44.4636C331.359 44.6702 331.552 44.9241 331.678 45.2312C331.804 45.5382 331.87 45.8866 331.87 46.2823V46.3767C331.87 46.3767 331.87 46.4004 331.888 46.4063V46.5303C331.888 46.9968 331.81 47.3983 331.654 47.7408C331.498 48.0832 331.263 48.3726 330.957 48.6088C330.65 48.8391 330.332 49.028 329.989 49.1815C329.653 49.3351 329.298 49.4532 328.931 49.5417C328.793 49.5713 328.661 49.5949 328.529 49.6126C328.397 49.6303 328.27 49.648 328.144 49.6657C328.018 49.6776 327.892 49.6835 327.772 49.6894C327.651 49.6894 327.531 49.6953 327.417 49.6953C327.303 49.6953 327.189 49.6953 327.074 49.6894C326.966 49.6894 326.858 49.6776 326.768 49.6657C326.66 49.6539 326.57 49.6421 326.485 49.6244C326.401 49.6067 326.329 49.589 326.263 49.5713V54.5609C326.197 54.5609 326.137 54.5609 326.083 54.555C326.023 54.555 325.969 54.5432 325.914 54.5313C325.86 54.5195 325.806 54.5136 325.746 54.5077C325.686 54.5077 325.632 54.5018 325.578 54.5018C325.512 54.5018 325.452 54.5018 325.386 54.5077C325.32 54.5077 325.259 54.5195 325.193 54.5313C325.127 54.5432 325.067 54.5491 324.995 54.555C324.929 54.555 324.851 54.5609 324.767 54.5609V43.7963ZM326.251 48.9394H327.754C328.132 48.9631 328.469 48.9099 328.763 48.7918C329.058 48.6737 329.31 48.4966 329.52 48.2722C329.731 48.036 329.899 47.788 330.019 47.5282C330.139 47.2684 330.218 46.9967 330.248 46.7074V46.6779C330.248 46.6779 330.248 46.6602 330.266 46.6484V46.4594C330.266 46.1878 330.224 45.9398 330.139 45.7036C330.055 45.4733 329.929 45.2489 329.761 45.0422C329.593 44.8356 329.382 44.682 329.13 44.5758C328.877 44.4695 328.583 44.4222 328.246 44.4222H328.138C328.138 44.4222 328.114 44.4399 328.108 44.4399H328.012L326.257 44.4104V48.9454L326.251 48.9394ZM333.769 50.3979V43.7963C333.842 43.8258 333.914 43.8495 333.986 43.8672C334.052 43.8849 334.118 43.8967 334.184 43.9085C334.25 43.9203 334.31 43.9262 334.376 43.9262H334.725C334.725 43.9262 334.767 43.9262 334.791 43.9085H334.893C334.929 43.9085 334.971 43.9085 335.013 43.8908C335.056 43.879 335.098 43.8672 335.14 43.8613C335.182 43.8495 335.224 43.8377 335.266 43.8317V50.1677C335.266 50.894 335.344 51.5081 335.494 52.01C335.645 52.5119 335.879 52.9134 336.197 53.2146C336.516 53.5157 336.877 53.7401 337.279 53.8877C337.688 54.0353 338.133 54.1121 338.631 54.1121C339.25 54.1121 339.785 54.0294 340.218 53.8641C340.657 53.6988 340.999 53.4567 341.252 53.1319C341.504 52.8012 341.703 52.3997 341.847 51.9273C341.991 51.4549 342.075 50.9176 342.105 50.3035V43.7963C342.135 43.8199 342.171 43.8377 342.201 43.8495C342.231 43.8672 342.267 43.879 342.297 43.8908C342.328 43.9026 342.364 43.9085 342.394 43.9144C342.424 43.9144 342.46 43.9203 342.49 43.9203H342.718C342.754 43.9203 342.796 43.9203 342.838 43.9026C342.88 43.8908 342.923 43.879 342.971 43.8613C343.019 43.8436 343.061 43.8317 343.103 43.8199V50.0318C343.103 50.7581 343.019 51.4077 342.844 51.9804C342.67 52.5532 342.412 53.061 342.063 53.498C341.715 53.9409 341.246 54.2715 340.657 54.4841C340.068 54.6967 339.353 54.803 338.505 54.803H338.223C337.345 54.803 336.612 54.6967 336.023 54.4782C335.434 54.2597 334.983 53.9291 334.677 53.4862C334.382 53.0315 334.16 52.5473 334.004 52.0395C333.854 51.5317 333.775 50.9943 333.775 50.4216V50.392L333.769 50.3979ZM346.126 54.5609V43.9203H349.876C349.876 43.9203 349.918 43.9498 349.948 43.9498H350.164C350.501 43.9617 350.826 44.003 351.126 44.0798C351.433 44.1565 351.727 44.2687 352.01 44.4163C352.292 44.5521 352.508 44.7529 352.653 45.0304C352.797 45.3021 352.869 45.6504 352.869 46.0638V46.2823C352.869 46.5834 352.809 46.8727 352.695 47.1444C352.58 47.416 352.412 47.6817 352.19 47.9297C351.967 48.1777 351.715 48.3785 351.433 48.5261C351.15 48.6737 350.838 48.78 350.501 48.845C350.868 48.9099 351.216 48.9926 351.547 49.1107C351.871 49.2229 352.166 49.3646 352.43 49.5299C352.707 49.6953 352.905 49.9374 353.037 50.2503C353.169 50.5633 353.236 50.953 353.236 51.4077C353.236 51.9568 353.145 52.4292 352.959 52.8307C352.773 53.2264 352.496 53.5452 352.13 53.7873C351.769 54.0353 351.39 54.2243 350.982 54.3542C350.579 54.4841 350.152 54.555 349.708 54.5668H346.132L346.126 54.5609ZM347.502 53.9527H349.005C349.371 53.9704 349.702 53.9409 349.99 53.8523C350.279 53.7637 350.543 53.6338 350.771 53.4567C350.994 53.2795 351.18 53.0965 351.324 52.9075C351.475 52.7186 351.583 52.5119 351.655 52.2934C351.655 52.2698 351.655 52.2521 351.661 52.2285C351.661 52.2048 351.673 52.1812 351.685 52.1517C351.685 52.1281 351.685 52.1104 351.691 52.0867C351.691 52.069 351.697 52.0454 351.697 52.0218C351.709 51.9804 351.715 51.9391 351.721 51.8978C351.721 51.8564 351.727 51.8151 351.727 51.7738C351.727 51.2542 351.643 50.8231 351.481 50.4747C351.318 50.1263 351.066 49.8724 350.729 49.7071C350.405 49.5417 349.966 49.4177 349.425 49.3351C348.884 49.2524 348.235 49.2111 347.49 49.2111V53.9468L347.502 53.9527ZM347.502 48.5615H348.5C348.962 48.5852 349.377 48.5497 349.732 48.4612C350.092 48.3726 350.393 48.2427 350.651 48.0655C350.892 47.8884 351.084 47.6699 351.228 47.416C351.372 47.1562 351.457 46.855 351.487 46.5125V46.4476C351.487 46.4476 351.487 46.424 351.505 46.4181V46.3413C351.505 46.0402 351.439 45.7744 351.312 45.5501C351.186 45.3198 350.994 45.1367 350.741 44.9891C350.489 44.8415 350.219 44.7352 349.93 44.6643C349.642 44.5935 349.329 44.558 349.005 44.558L347.502 44.5285V48.5674V48.5615ZM355.639 54.5609V43.7963C355.682 43.8258 355.73 43.8495 355.784 43.8672C355.838 43.8849 355.892 43.8967 355.958 43.9085C356.024 43.9203 356.084 43.9262 356.15 43.9262H356.547C356.613 43.9262 356.673 43.9262 356.739 43.9085C356.793 43.8967 356.841 43.8849 356.89 43.8672C356.938 43.8495 356.974 43.8377 357.01 43.8258V53.7047C357.082 53.7224 357.16 53.7401 357.244 53.7519C357.328 53.7637 357.418 53.7696 357.515 53.7696C357.611 53.7814 357.707 53.7873 357.815 53.7873H358.795C358.837 53.7873 358.885 53.7873 358.939 53.7696H359.209C359.42 53.7578 359.624 53.746 359.828 53.7401C360.027 53.7283 360.231 53.7224 360.429 53.7106C360.622 53.687 360.79 53.6692 360.952 53.6574C361.108 53.6397 361.253 53.6279 361.379 53.6161C361.367 53.6456 361.355 53.681 361.349 53.7106C361.337 53.7401 361.331 53.7755 361.331 53.8051C361.319 53.8346 361.313 53.87 361.313 53.8995V54.1475C361.313 54.1771 361.313 54.2066 361.319 54.2302C361.319 54.2538 361.331 54.2774 361.343 54.3011V54.3424C361.343 54.3424 361.343 54.3778 361.361 54.3955V54.5018C361.361 54.5018 361.361 54.5195 361.379 54.5313V54.555L355.658 54.5609H355.639ZM363.633 43.7963C363.687 43.8258 363.735 43.8495 363.783 43.8672C363.831 43.8849 363.885 43.8967 363.951 43.9085C364.005 43.9203 364.059 43.9262 364.125 43.9262H364.504C364.504 43.9262 364.552 43.9262 364.582 43.9203C364.612 43.9203 364.648 43.9144 364.678 43.9144C364.744 43.9026 364.805 43.8908 364.859 43.8731C364.919 43.8554 364.967 43.8436 365.009 43.8317V54.5668C364.967 54.5668 364.919 54.5668 364.859 54.5609C364.799 54.5609 364.744 54.5491 364.69 54.5373C364.66 54.5373 364.624 54.5373 364.594 54.5313C364.564 54.5313 364.534 54.5254 364.516 54.5254C364.486 54.5136 364.45 54.5077 364.42 54.5077H364.324C364.258 54.5077 364.198 54.5077 364.131 54.5136C364.065 54.5136 364.005 54.5254 363.939 54.5373C363.873 54.5491 363.819 54.555 363.771 54.5609C363.723 54.5609 363.675 54.5668 363.621 54.5668V43.8022L363.633 43.7963ZM367.04 49.2937C367.04 48.5674 367.172 47.8884 367.437 47.2507C367.701 46.6129 368.092 46.0224 368.609 45.4733C369.138 44.9241 369.757 44.5108 370.472 44.2392C371.187 43.9676 371.992 43.8258 372.894 43.8258H373.212C373.267 43.8377 373.321 43.8436 373.369 43.8436H373.525C373.639 43.8554 373.753 43.8613 373.868 43.8672C373.976 43.8672 374.09 43.879 374.21 43.8908C374.432 43.9026 374.649 43.9262 374.865 43.9617C375.082 43.9971 375.292 44.0443 375.508 44.0916C375.719 44.1447 375.917 44.2097 376.109 44.2864C376.302 44.3632 376.476 44.4518 376.644 44.558L376.265 45.7567H376.139C375.947 45.5914 375.755 45.4379 375.556 45.2961C375.358 45.1544 375.148 45.0363 374.937 44.93C374.727 44.8238 374.511 44.7411 374.294 44.6761C374.078 44.6112 373.868 44.5521 373.651 44.5108C373.585 44.499 373.525 44.4931 373.459 44.4872C373.393 44.4872 373.339 44.4754 373.285 44.4636H373.188C373.158 44.4636 373.128 44.4636 373.11 44.4458H372.936C372.377 44.4458 371.848 44.5521 371.355 44.7588C370.863 44.9655 370.394 45.2784 369.961 45.6918C369.54 46.1051 369.216 46.5952 368.993 47.168C368.771 47.7349 368.663 48.3903 368.663 49.1284V49.3292C368.687 50.209 368.807 50.9648 369.036 51.5966C369.264 52.2285 369.594 52.7245 370.039 53.0906C370.484 53.4626 370.947 53.7401 371.434 53.9231C371.92 54.1062 372.431 54.1948 372.966 54.1948H373.249C373.531 54.1712 373.819 54.1357 374.102 54.0767C374.384 54.0176 374.667 53.9409 374.937 53.8346C375.214 53.7283 375.472 53.6102 375.713 53.4685C375.953 53.3268 376.175 53.1732 376.38 53.0079L376.253 53.9527C376.181 54.0058 376.103 54.0531 376.031 54.0944C375.959 54.1357 375.887 54.1771 375.827 54.2184C375.755 54.2597 375.677 54.2952 375.604 54.3247C375.532 54.3542 375.454 54.3896 375.382 54.4192C375.268 54.4605 375.154 54.4959 375.039 54.5254C374.931 54.555 374.823 54.5904 374.715 54.6317C374.673 54.6435 374.631 54.6553 374.595 54.6613C374.559 54.6672 374.523 54.679 374.493 54.6908C374.336 54.7203 374.18 54.7557 374.036 54.7853C373.886 54.8148 373.741 54.8443 373.591 54.862C373.441 54.8856 373.297 54.8974 373.158 54.9093C373.014 54.9211 372.87 54.927 372.726 54.927C371.956 54.927 371.241 54.8089 370.574 54.5727C369.907 54.3365 369.294 53.9645 368.723 53.4567C368.152 52.9488 367.731 52.3525 367.449 51.6616C367.172 50.9707 367.028 50.1913 367.028 49.3233V49.2937H367.04ZM377.534 49.1875V48.9217C377.534 48.8686 377.534 48.8154 377.54 48.7682C377.54 48.7151 377.552 48.6619 377.564 48.6147C377.63 47.9947 377.798 47.3924 378.086 46.8196C378.369 46.2468 378.766 45.6918 379.27 45.1662C379.763 44.6407 380.376 44.2392 381.103 43.9794C381.831 43.7137 382.672 43.5837 383.634 43.5837C384.601 43.6133 385.431 43.7373 386.122 43.9557C386.813 44.1742 387.366 44.4931 387.792 44.9182C388.213 45.3316 388.562 45.7685 388.826 46.2232C389.097 46.6779 389.289 47.1562 389.403 47.6522C389.427 47.7171 389.439 47.7762 389.451 47.8411C389.463 47.9061 389.469 47.9592 389.481 48.0124C389.493 48.0773 389.499 48.1364 389.511 48.2013C389.523 48.2663 389.535 48.3253 389.541 48.3903C389.565 48.5143 389.577 48.6383 389.583 48.7564C389.583 48.8745 389.595 48.9926 389.607 49.1048V49.3055C389.607 50.1677 389.457 50.9353 389.157 51.6144C388.856 52.2934 388.399 52.878 387.786 53.3622C387.173 53.8582 386.524 54.2243 385.833 54.4664C385.142 54.7026 384.415 54.8266 383.646 54.8266H383.375C383.237 54.8266 383.105 54.8266 382.973 54.8207C382.84 54.8207 382.708 54.803 382.57 54.7793C382.432 54.7675 382.293 54.7498 382.161 54.7144C382.023 54.6849 381.885 54.6494 381.753 54.6199C381.224 54.5077 380.719 54.307 380.232 54.0294C379.745 53.7519 379.282 53.3976 378.838 52.9725C378.393 52.5473 378.068 52.0218 377.852 51.3959C377.636 50.77 377.528 50.0496 377.528 49.2288V49.1993L377.534 49.1875ZM379.162 49.1875C379.162 49.9964 379.264 50.7109 379.469 51.3309C379.673 51.9509 379.986 52.4824 380.412 52.9134C380.833 53.3504 381.314 53.6751 381.849 53.8936C382.384 54.1121 382.985 54.2184 383.634 54.2184C384.223 54.2184 384.769 54.1121 385.268 53.8936C385.767 53.6751 386.212 53.3504 386.603 52.9134C387.005 52.4765 387.318 51.9509 387.552 51.3309C387.786 50.7109 387.931 50.0082 387.997 49.217V48.969C387.997 48.2958 387.895 47.6758 387.69 47.103C387.486 46.5362 387.179 46.0224 386.765 45.5678C386.344 45.1131 385.863 44.7706 385.316 44.5403C384.776 44.31 384.168 44.1978 383.507 44.1978C382.906 44.1978 382.378 44.2923 381.921 44.4754C381.464 44.6643 381.073 44.936 380.761 45.2961C380.442 45.6682 380.178 46.0579 379.962 46.4594C379.745 46.8609 379.577 47.2802 379.445 47.7171C379.415 47.853 379.379 47.9829 379.349 48.1069C379.319 48.2309 379.288 48.3549 379.27 48.4789C379.252 48.6029 379.228 48.7269 379.216 48.8509C379.198 48.9749 379.18 49.093 379.162 49.2111V49.1815V49.1875Z" fill="white"/>
<path d="M231.367 70.6695V61.328H236.391C236.379 61.3753 236.373 61.4107 236.361 61.4461C236.349 61.4757 236.343 61.5052 236.331 61.5347C236.331 61.5465 236.331 61.5524 236.325 61.5701C236.325 61.5819 236.319 61.5938 236.319 61.6056C236.313 61.6233 236.307 61.6351 236.307 61.6469V61.8831C236.307 61.9126 236.307 61.948 236.319 61.9835C236.319 62.0012 236.319 62.0189 236.325 62.0366C236.325 62.0543 236.337 62.072 236.343 62.0898C236.355 62.1193 236.361 62.137 236.361 62.1606C236.361 62.1783 236.373 62.196 236.379 62.2138C236.241 62.1842 236.103 62.1665 235.964 62.1429C235.826 62.1252 235.676 62.1134 235.52 62.1016C235.369 62.0898 235.219 62.0839 235.069 62.0839C234.919 62.0839 234.762 62.0779 234.606 62.0779H234.035C233.999 62.0898 233.963 62.0898 233.933 62.0898H233.368C233.332 62.1016 233.29 62.1016 233.248 62.1016H232.659V65.4024H234.744L236.048 65.2961C236.036 65.3433 236.03 65.3788 236.012 65.4142C236 65.4437 235.988 65.4732 235.976 65.5028C235.964 65.5382 235.964 65.5736 235.964 65.6031V65.8157C235.964 65.8157 235.964 65.863 235.97 65.8866C235.97 65.9043 235.976 65.922 235.976 65.9397C235.988 65.9752 235.994 66.0165 236.012 66.0578C236.024 66.0992 236.036 66.1405 236.048 66.1877L234.408 66.0519H232.659V69.9255C232.725 69.9432 232.791 69.955 232.869 69.9668C232.941 69.9786 233.019 69.9786 233.104 69.9786C233.188 69.9905 233.272 69.9905 233.368 69.9905H234.227C234.263 69.9905 234.306 69.9905 234.354 69.9786H234.588C234.774 69.9668 234.955 69.9609 235.129 69.9491C235.303 69.9373 235.483 69.9314 235.658 69.9196C235.826 69.9019 235.976 69.8842 236.115 69.8724C236.253 69.8606 236.379 69.8487 236.487 69.8369C236.475 69.8724 236.469 69.9137 236.451 69.955C236.439 69.9964 236.427 70.0377 236.415 70.0849C236.403 70.1204 236.403 70.1558 236.403 70.1912V70.4097C236.403 70.4451 236.403 70.4806 236.415 70.516C236.427 70.5514 236.433 70.5868 236.451 70.6105C236.463 70.64 236.475 70.6577 236.487 70.6636H231.367V70.6695ZM237.917 63.3711C237.972 62.9814 238.086 62.6389 238.248 62.3555C238.416 62.0661 238.627 61.8359 238.885 61.6528C239.156 61.4698 239.426 61.328 239.702 61.2217C239.979 61.1155 240.273 61.0505 240.58 61.0269H240.796C240.796 61.0269 240.826 61.0269 240.844 61.0151H240.928C241.163 61.0151 241.379 61.0328 241.596 61.0682C241.806 61.1036 242.016 61.1568 242.221 61.2336C242.413 61.2985 242.581 61.3753 242.719 61.4697C242.858 61.5642 242.972 61.6705 243.05 61.7768C242.996 61.8299 242.948 61.889 242.912 61.948C242.876 62.0071 242.84 62.072 242.816 62.1429C242.786 62.2138 242.761 62.3023 242.731 62.3968C242.701 62.4913 242.677 62.5976 242.647 62.7039V62.7216C242.647 62.7216 242.635 62.7452 242.635 62.7511V62.8102L242.623 62.8279V62.8456L242.401 62.8161C242.401 62.8161 242.383 62.7747 242.365 62.7393C242.353 62.7098 242.335 62.6743 242.317 62.6389C242.299 62.5917 242.275 62.5503 242.257 62.509C242.233 62.4677 242.209 62.4322 242.179 62.3909C242.112 62.3023 242.034 62.2138 241.938 62.1311C241.842 62.0484 241.728 61.9717 241.596 61.9008C241.475 61.8299 241.331 61.7709 241.175 61.7296C241.013 61.6882 240.838 61.6705 240.652 61.6705C240.448 61.6705 240.255 61.7118 240.075 61.7945C239.895 61.8772 239.72 62.0012 239.552 62.1606C239.384 62.326 239.264 62.5031 239.186 62.6921C239.107 62.881 239.065 63.0818 239.065 63.2944V63.442C239.065 63.442 239.065 63.4597 239.077 63.4715V63.5246C239.095 63.6427 239.138 63.7608 239.198 63.8848C239.258 64.0088 239.336 64.1328 239.426 64.2627C239.528 64.3808 239.648 64.493 239.793 64.5993C239.937 64.7056 240.111 64.8001 240.315 64.8946L241.854 65.5087C242.13 65.6386 242.371 65.7803 242.575 65.9456C242.78 66.111 242.942 66.294 243.062 66.4889C243.194 66.6896 243.284 66.8963 243.344 67.1089C243.405 67.3215 243.435 67.5399 243.435 67.7584V67.9474C243.435 67.9474 243.423 67.9769 243.423 67.9887V68.0182C243.387 68.3843 243.284 68.7268 243.11 69.0575C242.936 69.3882 242.701 69.7011 242.395 69.9964C242.088 70.2975 241.752 70.5219 241.373 70.6636C241.001 70.8112 240.58 70.8821 240.117 70.8821H239.883C239.883 70.8821 239.847 70.8703 239.829 70.8703H239.72C239.72 70.8703 239.684 70.8703 239.666 70.8585C239.636 70.8585 239.618 70.8585 239.594 70.8526C239.576 70.8526 239.558 70.8467 239.54 70.8467C239.366 70.8171 239.192 70.7817 239.017 70.7286C238.849 70.6813 238.675 70.6223 238.512 70.5573C238.344 70.4865 238.2 70.4097 238.074 70.3329C237.948 70.2562 237.833 70.1735 237.731 70.0967H237.725C237.725 70.0967 237.719 70.0967 237.719 70.0849H237.707V70.0731C237.707 70.0731 237.695 70.0731 237.695 70.0672C237.731 69.9668 237.767 69.8842 237.791 69.8015C237.821 69.7188 237.839 69.648 237.845 69.583C237.857 69.5476 237.863 69.5122 237.863 69.4826C237.863 69.4531 237.869 69.4177 237.869 69.3823C237.881 69.3527 237.887 69.3232 237.887 69.2937C237.887 69.2642 237.893 69.2287 237.893 69.1933V69.1461C237.893 69.1461 237.893 69.1165 237.905 69.0988V68.7741L238.128 68.7445C238.368 69.1106 238.591 69.3941 238.801 69.6066C239.011 69.8133 239.204 69.9491 239.378 70.0023C239.552 70.0672 239.72 70.1086 239.871 70.1381C240.021 70.1676 240.171 70.1794 240.309 70.1794C240.616 70.1794 240.88 70.1322 241.115 70.0436C241.349 69.955 241.541 69.8133 241.698 69.6185C241.854 69.4295 241.974 69.2287 242.052 69.0162C242.13 68.8095 242.173 68.591 242.185 68.3607C242.185 68.1777 242.16 68.0064 242.106 67.8352C242.058 67.6698 241.98 67.4986 241.878 67.3392C241.788 67.1738 241.662 67.0321 241.511 66.914C241.361 66.7959 241.181 66.7015 240.977 66.6247L239.546 65.9574C239.138 65.7862 238.819 65.5972 238.579 65.3965C238.344 65.1957 238.188 64.989 238.116 64.7706C238.05 64.5521 238.002 64.3277 237.966 64.1033C237.93 63.873 237.911 63.6427 237.911 63.4065V63.377L237.917 63.3711ZM247.425 70.6695V61.8595C247.341 61.8772 247.245 61.889 247.131 61.8949C247.022 61.8949 246.896 61.9126 246.758 61.9303C246.62 61.9421 246.476 61.948 246.337 61.9658C246.193 61.9776 246.049 61.9953 245.899 62.013C245.845 62.0248 245.79 62.0307 245.736 62.0307C245.688 62.0307 245.634 62.0425 245.592 62.0484C245.544 62.0602 245.496 62.0661 245.448 62.0661C245.4 62.0661 245.346 62.072 245.304 62.072C245.214 62.0839 245.123 62.0898 245.033 62.1075C244.943 62.1193 244.859 62.137 244.775 62.1547C244.691 62.1665 244.619 62.1724 244.552 62.1842C244.486 62.196 244.426 62.202 244.372 62.2138C244.384 62.196 244.39 62.1724 244.39 62.1547C244.39 62.1311 244.402 62.1134 244.408 62.0957C244.408 62.078 244.408 62.0602 244.414 62.0425C244.414 62.0248 244.426 62.0012 244.432 61.9717V61.8359C244.432 61.8359 244.432 61.8122 244.444 61.7945V61.7414C244.444 61.6941 244.444 61.6528 244.438 61.6115C244.438 61.5701 244.426 61.5347 244.42 61.4934C244.408 61.4461 244.402 61.4048 244.402 61.3635C244.402 61.3221 244.384 61.2867 244.366 61.2454L251.68 61.2158C251.668 61.2513 251.662 61.2808 251.662 61.3044C251.662 61.328 251.65 61.3457 251.644 61.3635C251.632 61.3812 251.632 61.3989 251.632 61.4166V61.4697C251.632 61.4697 251.614 61.517 251.614 61.5406C251.614 61.5583 251.608 61.576 251.608 61.5937V61.8299C251.608 61.8713 251.608 61.9126 251.62 61.9599C251.632 61.9953 251.638 62.0366 251.656 62.0779C251.668 62.1193 251.68 62.1606 251.692 62.2079C251.368 62.1547 251.055 62.1075 250.749 62.0661C250.442 62.0248 250.154 61.9894 249.871 61.9658C249.595 61.9362 249.348 61.9185 249.144 61.9067C248.934 61.8949 248.765 61.889 248.639 61.889V70.6754H248.579C248.579 70.6754 248.537 70.6754 248.519 70.6636C248.489 70.6636 248.465 70.6636 248.441 70.6577C248.417 70.6577 248.399 70.6518 248.381 70.6518C248.333 70.64 248.285 70.6341 248.236 70.6341C248.188 70.6341 248.134 70.6282 248.092 70.6282H248.008C248.008 70.6282 247.96 70.6282 247.936 70.64C247.906 70.64 247.882 70.64 247.852 70.6459C247.822 70.6459 247.798 70.6518 247.768 70.6518C247.714 70.6636 247.66 70.6695 247.599 70.6695C247.545 70.6695 247.491 70.6754 247.431 70.6754L247.425 70.6695ZM251.037 70.6695L255.412 61.1096H255.731L260.004 70.6695H259.523C259.523 70.6695 259.481 70.6695 259.463 70.6577H259.247C259.247 70.6577 259.205 70.6577 259.187 70.6459H258.856C258.82 70.6577 258.784 70.6636 258.754 70.6636C258.724 70.6636 258.694 70.6695 258.664 70.6695H258.471L256.945 66.9022H253.555L252.137 70.6695H252.053C252.053 70.6695 252.017 70.6695 252.005 70.6636C251.993 70.6636 251.975 70.6577 251.957 70.6577H251.915C251.915 70.6577 251.885 70.6577 251.872 70.6459H251.608C251.608 70.6459 251.59 70.6577 251.578 70.6577H251.506L251.488 70.6695H251.037ZM253.886 66.2645H256.716L255.298 62.9342L253.88 66.2645H253.886ZM261.518 61.2158H266.002C266.795 61.2336 267.468 61.3517 268.021 61.576C268.574 61.8004 269.007 62.1311 269.319 62.5621C269.632 62.9991 269.872 63.4715 270.028 63.9852C270.185 64.4989 270.263 65.054 270.263 65.6445C270.263 65.7921 270.257 65.9397 270.245 66.0933C270.233 66.2468 270.209 66.4121 270.185 66.5834C270.155 66.7546 270.125 66.9258 270.083 67.0971C270.04 67.2683 269.986 67.4337 269.92 67.6108C269.782 67.9769 269.596 68.3253 269.355 68.6678C269.121 69.0103 268.832 69.3409 268.502 69.6539C268.171 69.9609 267.757 70.203 267.264 70.3743C266.771 70.5455 266.206 70.64 265.569 70.6636H261.518V61.2099V61.2158ZM262.835 61.8595V70.0318C262.943 70.0495 263.057 70.0613 263.159 70.0731C263.267 70.0849 263.369 70.0908 263.472 70.1026C263.574 70.1145 263.676 70.1145 263.784 70.1145H264.085C264.89 70.1145 265.587 70.0318 266.176 69.8665C266.765 69.7011 267.24 69.459 267.612 69.1283C267.973 68.8036 268.255 68.3548 268.466 67.7938C268.676 67.2329 268.802 66.5538 268.85 65.7626V65.7094C268.85 65.7094 268.85 65.674 268.862 65.6563V65.3433C268.862 64.7233 268.784 64.2037 268.622 63.7726C268.46 63.3475 268.219 63.0109 267.895 62.7629C267.57 62.5149 267.234 62.32 266.873 62.1606C266.519 62.0071 266.146 61.9008 265.755 61.8477C265.707 61.8358 265.665 61.8299 265.617 61.8299C265.569 61.8299 265.527 61.824 265.479 61.824C265.425 61.8122 265.371 61.8063 265.329 61.8063C265.281 61.8063 265.239 61.8004 265.19 61.8004C265.1 61.7886 265.004 61.7827 264.908 61.7827C264.812 61.7827 264.722 61.7768 264.638 61.7768C264.517 61.7768 264.403 61.7768 264.289 61.7827C264.181 61.7827 264.073 61.7945 263.97 61.8004C263.868 61.8122 263.772 61.8181 263.682 61.8181C263.592 61.8181 263.502 61.8299 263.418 61.8359C263.351 61.8477 263.291 61.8536 263.237 61.8536C263.183 61.8536 263.129 61.8595 263.087 61.8595C263.039 61.8713 262.997 61.8772 262.955 61.8772C262.913 61.8772 262.877 61.8831 262.853 61.8831V61.8536L262.835 61.8595ZM271.579 65.9515V65.7212C271.579 65.674 271.579 65.6327 271.585 65.5854C271.585 65.5382 271.597 65.4969 271.603 65.4496C271.657 64.9064 271.813 64.3808 272.06 63.873C272.312 63.3711 272.655 62.8869 273.099 62.4204C273.532 61.9539 274.073 61.6115 274.71 61.3753C275.347 61.145 276.086 61.0269 276.934 61.0269C277.787 61.0564 278.514 61.1627 279.121 61.3517C279.728 61.5406 280.215 61.824 280.588 62.196C280.96 62.5621 281.261 62.9401 281.495 63.3416C281.73 63.7431 281.898 64.1624 282 64.5993C282.018 64.6525 282.03 64.7056 282.042 64.7647C282.054 64.8178 282.06 64.8709 282.072 64.9123C282.084 64.9654 282.09 65.0186 282.102 65.0776C282.114 65.1308 282.12 65.1839 282.132 65.243C282.15 65.3492 282.162 65.4614 282.168 65.5618C282.168 65.6681 282.18 65.7685 282.186 65.8689V66.046C282.186 66.8018 282.054 67.475 281.79 68.0714C281.525 68.6678 281.123 69.1756 280.588 69.6066C280.053 70.0436 279.482 70.3684 278.875 70.575C278.268 70.7817 277.625 70.888 276.952 70.888H276.717C276.597 70.888 276.477 70.888 276.363 70.8821C276.249 70.8821 276.128 70.8644 276.008 70.8467C275.888 70.8349 275.768 70.8171 275.648 70.7935C275.527 70.764 275.407 70.7404 275.287 70.7108C274.824 70.6105 274.38 70.4392 273.953 70.1912C273.526 69.9432 273.118 69.6362 272.733 69.2642C272.342 68.8922 272.054 68.4316 271.867 67.8824C271.675 67.3333 271.585 66.6955 271.585 65.9811V65.9515H271.579ZM273.009 65.9515C273.009 66.6601 273.099 67.286 273.28 67.8352C273.46 68.3784 273.737 68.8449 274.103 69.2287C274.476 69.6125 274.896 69.896 275.365 70.0908C275.84 70.2798 276.363 70.3802 276.934 70.3802C277.451 70.3802 277.931 70.2857 278.37 70.0908C278.809 69.9019 279.2 69.6125 279.542 69.2287C279.897 68.8449 280.173 68.3843 280.377 67.8352C280.582 67.2919 280.708 66.6719 280.768 65.9811V65.7626C280.768 65.1721 280.678 64.6229 280.498 64.1269C280.317 63.625 280.047 63.1763 279.686 62.7747C279.314 62.3732 278.893 62.072 278.418 61.8772C277.943 61.6764 277.415 61.576 276.832 61.576C276.303 61.576 275.84 61.6587 275.437 61.824C275.035 61.9894 274.692 62.2315 274.416 62.5444C274.139 62.8692 273.905 63.2117 273.712 63.566C273.52 63.9203 273.37 64.2864 273.262 64.6702C273.232 64.7883 273.208 64.9005 273.178 65.0127C273.148 65.1189 273.13 65.2311 273.105 65.3374C273.087 65.4437 273.069 65.5559 273.057 65.6622C273.045 65.7685 273.027 65.8748 273.009 65.9752V65.9456V65.9515ZM287.764 61.2158H292.247C293.04 61.2336 293.713 61.3517 294.266 61.576C294.819 61.8004 295.252 62.1311 295.564 62.5621C295.877 62.9991 296.117 63.4715 296.274 63.9852C296.43 64.4989 296.508 65.054 296.508 65.6445C296.508 65.7921 296.502 65.9397 296.49 66.0933C296.478 66.2468 296.454 66.4121 296.43 66.5834C296.4 66.7546 296.37 66.9258 296.328 67.0971C296.286 67.2683 296.232 67.4337 296.165 67.6108C296.027 67.9769 295.841 68.3253 295.601 68.6678C295.366 69.0103 295.078 69.3409 294.747 69.6539C294.417 69.9609 294.002 70.203 293.509 70.3743C293.016 70.5455 292.451 70.64 291.814 70.6636H287.764V61.2099V61.2158ZM289.08 61.8595V70.0318C289.188 70.0495 289.302 70.0613 289.404 70.0731C289.513 70.0849 289.615 70.0908 289.717 70.1026C289.819 70.1145 289.921 70.1145 290.029 70.1145H290.33C291.135 70.1145 291.832 70.0318 292.421 69.8665C293.01 69.7011 293.485 69.459 293.858 69.1283C294.218 68.8036 294.501 68.3548 294.711 67.7938C294.921 67.2329 295.048 66.5538 295.096 65.7626V65.7094C295.096 65.7094 295.096 65.674 295.108 65.6563V65.3433C295.108 64.7233 295.03 64.2037 294.867 63.7726C294.705 63.3475 294.465 63.0109 294.14 62.7629C293.816 62.5149 293.479 62.32 293.118 62.1606C292.764 62.0071 292.391 61.9008 292.001 61.8477C291.953 61.8358 291.91 61.8299 291.862 61.8299C291.814 61.8299 291.772 61.824 291.724 61.824C291.67 61.8122 291.616 61.8063 291.574 61.8063C291.526 61.8063 291.484 61.8004 291.436 61.8004C291.346 61.7886 291.249 61.7827 291.153 61.7827C291.057 61.7827 290.967 61.7768 290.883 61.7768C290.763 61.7768 290.648 61.7768 290.534 61.7827C290.426 61.7827 290.318 61.7945 290.216 61.8004C290.114 61.8122 290.017 61.8181 289.921 61.8181C289.831 61.8181 289.741 61.8299 289.657 61.8359C289.591 61.8477 289.531 61.8536 289.476 61.8536C289.422 61.8536 289.368 61.8595 289.326 61.8595C289.278 61.8713 289.236 61.8772 289.194 61.8772C289.152 61.8772 289.116 61.8831 289.092 61.8831V61.8536L289.08 61.8595Z" fill="white"/>
<path d="M297.836 65.9513V65.721C297.836 65.6738 297.836 65.6325 297.842 65.5852C297.842 65.538 297.854 65.4966 297.86 65.4494C297.915 64.9062 298.071 64.3806 298.317 63.8728C298.57 63.3709 298.912 62.8867 299.357 62.4202C299.79 61.9537 300.331 61.6113 300.968 61.3751C301.605 61.1448 302.344 61.0267 303.191 61.0267C304.045 61.0562 304.772 61.1625 305.379 61.3514C305.986 61.5404 306.473 61.8238 306.845 62.1958C307.218 62.5619 307.518 62.9398 307.753 63.3414C307.987 63.7429 308.155 64.1622 308.258 64.5991C308.276 64.6523 308.288 64.7054 308.3 64.7644C308.312 64.8176 308.318 64.8707 308.33 64.9121C308.342 64.9652 308.348 65.0184 308.36 65.0774C308.372 65.1305 308.378 65.1837 308.39 65.2427C308.408 65.349 308.42 65.4612 308.426 65.5616C308.426 65.6679 308.438 65.7683 308.444 65.8687V66.0458C308.444 66.8016 308.312 67.4748 308.047 68.0712C307.783 68.6676 307.386 69.1754 306.845 69.6064C306.31 70.0434 305.739 70.3682 305.132 70.5748C304.525 70.7815 303.882 70.8878 303.209 70.8878H302.975C302.855 70.8878 302.734 70.8878 302.62 70.8819C302.506 70.8819 302.386 70.8642 302.266 70.8465C302.146 70.8346 302.025 70.8169 301.905 70.7933C301.785 70.7638 301.665 70.7402 301.545 70.7106C301.082 70.6103 300.637 70.439 300.21 70.191C299.784 69.943 299.375 69.636 298.99 69.264C298.6 68.8919 298.311 68.4314 298.125 67.8822C297.933 67.3331 297.842 66.6953 297.842 65.9808V65.9513H297.836ZM299.267 65.9513C299.267 66.6599 299.357 67.2858 299.537 67.835C299.718 68.3782 299.994 68.8447 300.361 69.2285C300.733 69.6123 301.154 69.8958 301.623 70.0906C302.097 70.2796 302.62 70.38 303.191 70.38C303.708 70.38 304.189 70.2855 304.628 70.0906C305.066 69.9017 305.457 69.6123 305.8 69.2285C306.154 68.8447 306.431 68.3841 306.635 67.835C306.839 67.2917 306.965 66.6717 307.026 65.9808V65.7624C307.026 65.1719 306.935 64.6227 306.755 64.1267C306.575 63.6248 306.304 63.176 305.944 62.7745C305.571 62.373 305.15 62.0718 304.676 61.877C304.201 61.6762 303.672 61.5758 303.089 61.5758C302.56 61.5758 302.097 61.6585 301.695 61.8238C301.292 61.9892 300.95 62.2313 300.673 62.5442C300.397 62.869 300.162 63.2115 299.97 63.5658C299.778 63.9201 299.627 64.2862 299.519 64.67C299.489 64.7881 299.465 64.9003 299.435 65.0125C299.405 65.1187 299.387 65.2309 299.363 65.3372C299.345 65.4435 299.327 65.5557 299.315 65.662C299.303 65.7683 299.285 65.8746 299.267 65.9749V65.9454V65.9513ZM315.992 70.6693V61.8593C315.908 61.877 315.812 61.8888 315.698 61.8947C315.59 61.8947 315.463 61.9124 315.325 61.9301C315.187 61.9419 315.043 61.9478 314.905 61.9655C314.76 61.9774 314.616 61.9951 314.466 62.0128C314.412 62.0246 314.358 62.0305 314.304 62.0305C314.255 62.0305 314.201 62.0423 314.159 62.0482C314.111 62.06 314.063 62.0659 314.015 62.0659C313.967 62.0659 313.913 62.0718 313.871 62.0718C313.781 62.0836 313.691 62.0895 313.6 62.1073C313.51 62.1191 313.426 62.1368 313.342 62.1545C313.258 62.1663 313.186 62.1722 313.12 62.184C313.054 62.1958 312.993 62.2017 312.939 62.2135C312.951 62.1958 312.957 62.1722 312.957 62.1545C312.957 62.1309 312.969 62.1132 312.975 62.0955C312.975 62.0777 312.975 62.06 312.981 62.0423C312.981 62.0246 312.993 62.001 312.999 61.9714V61.8356C312.999 61.8356 312.999 61.812 313.011 61.7943V61.7412C313.011 61.6939 313.011 61.6526 313.005 61.6113C313.005 61.5699 312.993 61.5345 312.987 61.4932C312.975 61.4459 312.969 61.4046 312.969 61.3632C312.969 61.3219 312.951 61.2865 312.933 61.2452L320.247 61.2156C320.235 61.2511 320.229 61.2806 320.229 61.3042C320.229 61.3278 320.217 61.3455 320.211 61.3632C320.199 61.381 320.199 61.3987 320.199 61.4164V61.4695C320.199 61.4695 320.181 61.5168 320.181 61.5404C320.181 61.5581 320.175 61.5758 320.175 61.5935V61.8297C320.175 61.8711 320.175 61.9124 320.187 61.9596C320.199 61.9951 320.205 62.0364 320.223 62.0777C320.235 62.1191 320.247 62.1604 320.259 62.2076C319.935 62.1545 319.622 62.1073 319.316 62.0659C319.009 62.0246 318.721 61.9892 318.438 61.9655C318.162 61.936 317.916 61.9183 317.711 61.9065C317.501 61.8947 317.333 61.8888 317.206 61.8888V70.6752H317.146C317.146 70.6752 317.104 70.6752 317.086 70.6634C317.056 70.6634 317.032 70.6634 317.008 70.6575C316.984 70.6575 316.966 70.6516 316.948 70.6516C316.9 70.6398 316.852 70.6339 316.804 70.6339C316.756 70.6339 316.702 70.628 316.659 70.628H316.575C316.575 70.628 316.527 70.628 316.503 70.6398C316.473 70.6398 316.449 70.6398 316.419 70.6457C316.389 70.6457 316.365 70.6516 316.335 70.6516C316.281 70.6634 316.227 70.6693 316.167 70.6693C316.113 70.6693 316.058 70.6752 315.998 70.6752L315.992 70.6693ZM320.476 65.9513V65.721C320.476 65.6738 320.476 65.6325 320.482 65.5852C320.482 65.538 320.494 65.4966 320.5 65.4494C320.554 64.9062 320.71 64.3806 320.957 63.8728C321.209 63.3709 321.552 62.8867 321.996 62.4202C322.429 61.9537 322.97 61.6113 323.607 61.3751C324.244 61.1448 324.983 61.0267 325.831 61.0267C326.684 61.0562 327.411 61.1625 328.018 61.3514C328.625 61.5404 329.112 61.8238 329.485 62.1958C329.857 62.5619 330.158 62.9398 330.392 63.3414C330.626 63.7429 330.795 64.1622 330.897 64.5991C330.915 64.6523 330.927 64.7054 330.939 64.7644C330.951 64.8176 330.957 64.8707 330.969 64.9121C330.981 64.9652 330.987 65.0184 330.999 65.0774C331.011 65.1305 331.017 65.1837 331.029 65.2427C331.047 65.349 331.059 65.4612 331.065 65.5616C331.065 65.6679 331.077 65.7683 331.083 65.8687V66.0458C331.083 66.8016 330.951 67.4748 330.687 68.0712C330.422 68.6676 330.025 69.1754 329.485 69.6064C328.95 70.0434 328.379 70.3682 327.772 70.5748C327.165 70.7815 326.522 70.8878 325.849 70.8878H325.614C325.494 70.8878 325.374 70.8878 325.26 70.8819C325.145 70.8819 325.025 70.8642 324.905 70.8465C324.785 70.8346 324.665 70.8169 324.544 70.7933C324.424 70.7638 324.304 70.7402 324.184 70.7106C323.721 70.6103 323.276 70.439 322.85 70.191C322.423 69.943 322.014 69.636 321.63 69.264C321.239 68.8919 320.951 68.4314 320.764 67.8822C320.572 67.3331 320.482 66.6953 320.482 65.9808V65.9513H320.476ZM321.906 65.9513C321.906 66.6599 321.996 67.2858 322.177 67.835C322.357 68.3782 322.633 68.8447 323 69.2285C323.366 69.6123 323.793 69.8958 324.262 70.0906C324.737 70.2796 325.26 70.38 325.831 70.38C326.347 70.38 326.828 70.2855 327.267 70.0906C327.706 69.9017 328.096 69.6123 328.439 69.2285C328.793 68.8447 329.07 68.3841 329.274 67.835C329.479 67.2917 329.605 66.6717 329.665 65.9808V65.7624C329.665 65.1719 329.575 64.6227 329.394 64.1267C329.214 63.6248 328.944 63.176 328.583 62.7745C328.21 62.373 327.79 62.0718 327.315 61.877C326.84 61.6762 326.311 61.5758 325.728 61.5758C325.2 61.5758 324.737 61.6585 324.334 61.8238C323.931 61.9892 323.589 62.2313 323.312 62.5442C323.036 62.869 322.802 63.2115 322.609 63.5658C322.417 63.9201 322.267 64.2862 322.159 64.67C322.128 64.7881 322.104 64.9003 322.074 65.0125C322.044 65.1187 322.026 65.2309 322.002 65.3372C321.984 65.4435 321.966 65.5557 321.954 65.662C321.942 65.7683 321.924 65.8746 321.906 65.9749V65.9454V65.9513ZM332.069 66.0458C332.069 65.4081 332.183 64.8117 332.417 64.2507C332.652 63.6898 332.988 63.1701 333.445 62.6918C333.908 62.2076 334.455 61.8474 335.086 61.6054C335.717 61.3633 336.426 61.2452 337.207 61.2452H337.484C337.532 61.257 337.574 61.257 337.622 61.257H337.76C337.862 61.2688 337.959 61.2747 338.061 61.2747C338.157 61.2747 338.259 61.2865 338.361 61.2924C338.554 61.3042 338.746 61.3219 338.938 61.3514C339.13 61.381 339.317 61.4223 339.503 61.4695C339.689 61.5168 339.864 61.5699 340.032 61.6408C340.2 61.7116 340.356 61.7884 340.507 61.877L340.176 62.928H340.068C339.9 62.7804 339.731 62.6505 339.557 62.5265C339.383 62.4025 339.203 62.2962 339.016 62.2076C338.83 62.1191 338.644 62.0423 338.451 61.9833C338.259 61.9242 338.073 61.877 337.886 61.8415C337.832 61.8297 337.778 61.8238 337.718 61.8238C337.664 61.8238 337.61 61.812 337.568 61.8061H337.484C337.484 61.8061 337.436 61.8061 337.412 61.7943H337.261C336.769 61.7943 336.306 61.8829 335.873 62.0659C335.44 62.249 335.032 62.5206 334.653 62.8867C334.28 63.2528 333.998 63.6839 333.806 64.1799C333.613 64.6818 333.511 65.2546 333.511 65.8982V66.0753C333.529 66.8489 333.637 67.5102 333.836 68.0653C334.034 68.6203 334.329 69.0573 334.719 69.3761C335.11 69.7009 335.513 69.9489 335.939 70.1083C336.366 70.2678 336.817 70.3445 337.285 70.3445H337.538C337.79 70.3268 338.037 70.2914 338.289 70.2442C338.542 70.1969 338.782 70.1261 339.022 70.0316C339.263 69.943 339.491 69.8367 339.701 69.7127C339.912 69.5887 340.11 69.4588 340.284 69.3112L340.176 70.1438C340.11 70.191 340.044 70.2323 339.984 70.2678C339.918 70.3032 339.858 70.3386 339.804 70.3741C339.737 70.4095 339.671 70.4449 339.611 70.4685C339.545 70.4981 339.479 70.5217 339.419 70.5512C339.317 70.5866 339.221 70.6221 339.118 70.6457C339.022 70.6752 338.926 70.7047 338.836 70.7402C338.8 70.752 338.764 70.7579 338.734 70.7697C338.704 70.7815 338.674 70.7874 338.644 70.7992C338.505 70.8287 338.373 70.8524 338.241 70.8819C338.109 70.9114 337.983 70.9291 337.85 70.9527C337.718 70.9705 337.592 70.9823 337.466 70.9941C337.34 71.0059 337.213 71.0059 337.081 71.0059C336.408 71.0059 335.777 70.8996 335.194 70.6929C334.611 70.4863 334.07 70.1556 333.571 69.7127C333.072 69.2699 332.7 68.7443 332.453 68.1361C332.207 67.5338 332.087 66.8489 332.087 66.0812V66.0517L332.069 66.0458ZM340.927 70.6693L345.303 61.1093H345.621L349.894 70.6693H349.413C349.413 70.6693 349.371 70.6693 349.353 70.6575H349.137C349.137 70.6575 349.095 70.6575 349.077 70.6457H348.746C348.71 70.6575 348.674 70.6634 348.644 70.6634C348.614 70.6634 348.584 70.6693 348.554 70.6693H348.362L346.835 66.902H343.446L342.027 70.6693H341.943C341.943 70.6693 341.907 70.6693 341.895 70.6634C341.883 70.6634 341.865 70.6575 341.847 70.6575H341.805C341.805 70.6575 341.775 70.6575 341.763 70.6457H341.498C341.498 70.6457 341.48 70.6575 341.468 70.6575H341.396L341.378 70.6693H340.927ZM343.776 66.2643H346.607L345.188 62.9339L343.77 66.2643H343.776ZM351.409 70.6693V61.2156H352.076L358.741 68.4196V61.2156C358.741 61.2156 358.801 61.2629 358.831 61.2747C358.861 61.2865 358.897 61.2983 358.933 61.3101C358.969 61.3219 359.011 61.3219 359.053 61.3219H359.294C359.294 61.3219 359.33 61.3219 359.348 61.316C359.366 61.316 359.384 61.3101 359.402 61.3101C359.45 61.2983 359.486 61.2924 359.522 61.2747C359.552 61.2629 359.582 61.2511 359.612 61.2392V70.6634H359.071L352.28 63.2587V70.6634C352.28 70.6634 352.226 70.6634 352.196 70.6575C352.166 70.6575 352.136 70.6457 352.1 70.6398C352.064 70.628 352.028 70.6221 351.998 70.6221C351.968 70.6221 351.932 70.6162 351.896 70.6162H351.841C351.841 70.6162 351.805 70.6162 351.787 70.628C351.757 70.628 351.733 70.628 351.715 70.6339C351.697 70.6339 351.679 70.6398 351.661 70.6398C351.625 70.6516 351.583 70.6575 351.541 70.6575C351.499 70.6575 351.457 70.6634 351.409 70.6634V70.6693ZM364.21 70.6693V61.8593C364.126 61.877 364.03 61.8888 363.921 61.8947C363.813 61.8947 363.687 61.9124 363.549 61.9301C363.41 61.9419 363.266 61.9478 363.128 61.9655C362.984 61.9774 362.84 61.9951 362.689 62.0128C362.635 62.0246 362.581 62.0305 362.527 62.0305C362.479 62.0305 362.425 62.0423 362.383 62.0482C362.335 62.06 362.287 62.0659 362.239 62.0659C362.19 62.0659 362.136 62.0718 362.094 62.0718C362.004 62.0836 361.914 62.0895 361.824 62.1073C361.734 62.1191 361.65 62.1368 361.565 62.1545C361.481 62.1663 361.409 62.1722 361.343 62.184C361.277 62.1958 361.217 62.2017 361.163 62.2135C361.175 62.1958 361.181 62.1722 361.181 62.1545C361.181 62.1309 361.193 62.1132 361.199 62.0955C361.199 62.0777 361.199 62.06 361.205 62.0423C361.205 62.0246 361.217 62.001 361.223 61.9714V61.8356C361.223 61.8356 361.223 61.812 361.235 61.7943V61.7412C361.235 61.6939 361.235 61.6526 361.229 61.6113C361.229 61.5699 361.217 61.5345 361.211 61.4932C361.199 61.4459 361.193 61.4046 361.193 61.3632C361.193 61.3219 361.175 61.2865 361.157 61.2452L368.471 61.2156C368.459 61.2511 368.453 61.2806 368.453 61.3042C368.453 61.3278 368.441 61.3455 368.435 61.3632C368.423 61.381 368.423 61.3987 368.423 61.4164V61.4695C368.423 61.4695 368.405 61.5168 368.405 61.5404C368.405 61.5581 368.399 61.5758 368.399 61.5935V61.8297C368.399 61.8711 368.399 61.9124 368.411 61.9596C368.423 61.9951 368.429 62.0364 368.447 62.0777C368.459 62.1191 368.471 62.1604 368.483 62.2076C368.158 62.1545 367.846 62.1073 367.539 62.0659C367.233 62.0246 366.944 61.9892 366.662 61.9655C366.385 61.936 366.139 61.9183 365.935 61.9065C365.724 61.8947 365.556 61.8888 365.43 61.8888V70.6752H365.37C365.37 70.6752 365.328 70.6752 365.31 70.6634C365.28 70.6634 365.256 70.6634 365.231 70.6575C365.207 70.6575 365.189 70.6516 365.171 70.6516C365.123 70.6398 365.075 70.6339 365.027 70.6339C364.979 70.6339 364.925 70.628 364.883 70.628H364.799C364.799 70.628 364.751 70.628 364.727 70.6398C364.697 70.6398 364.673 70.6398 364.643 70.6457C364.612 70.6457 364.588 70.6516 364.558 70.6516C364.504 70.6634 364.45 70.6693 364.39 70.6693C364.336 70.6693 364.282 70.6752 364.222 70.6752L364.21 70.6693ZM369.997 61.2156C370.045 61.2452 370.087 61.2629 370.13 61.2747C370.172 61.2865 370.22 61.2983 370.274 61.3101C370.322 61.3219 370.37 61.3219 370.424 61.3219H370.755C370.755 61.3219 370.797 61.3219 370.827 61.316C370.857 61.316 370.881 61.3101 370.911 61.3101C370.965 61.2983 371.019 61.2924 371.073 61.2747C371.121 61.2629 371.169 61.2511 371.205 61.2392V70.6634C371.169 70.6634 371.127 70.6634 371.073 70.6575C371.025 70.6575 370.971 70.6457 370.929 70.6398C370.899 70.6398 370.875 70.6398 370.845 70.6339C370.815 70.6339 370.791 70.628 370.773 70.628C370.743 70.6162 370.719 70.6162 370.688 70.6162H370.604C370.55 70.6162 370.496 70.6162 370.436 70.6221C370.382 70.6221 370.328 70.6339 370.268 70.6398C370.214 70.6516 370.166 70.6575 370.124 70.6575C370.081 70.6575 370.039 70.6634 369.991 70.6634V61.2097L369.997 61.2156ZM373.832 70.6693V61.2156H374.499L381.164 68.4196V61.2156C381.164 61.2156 381.224 61.2629 381.254 61.2747C381.284 61.2865 381.32 61.2983 381.356 61.3101C381.392 61.3219 381.434 61.3219 381.476 61.3219H381.717C381.717 61.3219 381.753 61.3219 381.771 61.316C381.789 61.316 381.807 61.3101 381.825 61.3101C381.873 61.2983 381.909 61.2924 381.945 61.2747C381.975 61.2629 382.005 61.2511 382.035 61.2392V70.6634H381.494L374.703 63.2587V70.6634C374.703 70.6634 374.649 70.6634 374.619 70.6575C374.589 70.6575 374.559 70.6457 374.523 70.6398C374.487 70.628 374.451 70.6221 374.421 70.6221C374.391 70.6221 374.355 70.6162 374.318 70.6162H374.264C374.264 70.6162 374.228 70.6162 374.21 70.628C374.18 70.628 374.156 70.628 374.138 70.6339C374.12 70.6339 374.102 70.6398 374.084 70.6398C374.048 70.6516 374.006 70.6575 373.964 70.6575C373.922 70.6575 373.88 70.6634 373.832 70.6634V70.6693Z" fill="white"/>
<path d="M384.114 63.3766C384.169 62.9869 384.283 62.6444 384.445 62.361C384.613 62.0716 384.824 61.8413 385.082 61.6583C385.353 61.4752 385.623 61.3335 385.899 61.2272C386.176 61.121 386.47 61.056 386.777 61.0324H386.993C386.993 61.0324 387.023 61.0324 387.041 61.0206H387.125C387.36 61.0206 387.576 61.0383 387.793 61.0737C388.003 61.1091 388.213 61.1623 388.418 61.2391C388.61 61.304 388.778 61.3808 388.916 61.4752C389.055 61.5697 389.169 61.676 389.247 61.7823C389.193 61.8354 389.145 61.8945 389.109 61.9535C389.073 62.0126 389.037 62.0775 389.013 62.1484C388.982 62.2193 388.958 62.3078 388.928 62.4023C388.898 62.4968 388.874 62.6031 388.844 62.7094V62.7271C388.844 62.7271 388.832 62.7507 388.832 62.7566V62.8156L388.82 62.8334V62.8511L388.598 62.8216C388.598 62.8216 388.58 62.7802 388.562 62.7448C388.55 62.7153 388.532 62.6798 388.514 62.6444C388.496 62.5972 388.472 62.5558 388.454 62.5145C388.43 62.4732 388.406 62.4377 388.375 62.3964C388.309 62.3078 388.231 62.2193 388.135 62.1366C388.039 62.0539 387.925 61.9772 387.793 61.9063C387.672 61.8354 387.534 61.7764 387.372 61.7351C387.21 61.6937 387.035 61.676 386.849 61.676C386.645 61.676 386.452 61.7173 386.272 61.8C386.092 61.8827 385.917 62.0067 385.749 62.1661C385.581 62.3255 385.461 62.5086 385.383 62.6976C385.304 62.8865 385.262 63.0873 385.262 63.2998V63.4475C385.262 63.4475 385.262 63.4652 385.274 63.477V63.5301C385.292 63.6482 385.334 63.7663 385.395 63.8903C385.455 64.0143 385.533 64.1383 385.623 64.2682C385.725 64.3863 385.845 64.4985 385.99 64.6048C386.134 64.7111 386.308 64.8056 386.512 64.9001L388.051 65.5142C388.327 65.6441 388.568 65.7858 388.772 65.9511C388.976 66.1165 389.139 66.2995 389.259 66.4944C389.391 66.6951 389.481 66.9018 389.541 67.1144C389.602 67.327 389.632 67.5454 389.632 67.7639V67.9529C389.632 67.9529 389.62 67.9824 389.62 67.9942V68.0237C389.583 68.3898 389.481 68.7323 389.307 69.063C389.133 69.3878 388.898 69.7066 388.592 70.0019C388.285 70.303 387.949 70.5274 387.57 70.6691C387.198 70.8167 386.777 70.8876 386.314 70.8876H386.08C386.08 70.8876 386.044 70.8758 386.026 70.8758H385.917C385.917 70.8758 385.881 70.8758 385.863 70.864C385.833 70.864 385.815 70.864 385.791 70.8581C385.773 70.8581 385.755 70.8522 385.737 70.8522C385.563 70.8226 385.389 70.7872 385.214 70.7341C385.046 70.6868 384.872 70.6278 384.709 70.5628C384.541 70.492 384.397 70.4152 384.271 70.3384C384.145 70.2617 384.03 70.179 383.928 70.1022H383.922C383.922 70.1022 383.916 70.1022 383.916 70.0904H383.904V70.0786C383.904 70.0786 383.892 70.0786 383.892 70.0727C383.928 69.9723 383.964 69.8897 383.988 69.807C384.018 69.7243 384.036 69.6535 384.042 69.5885C384.054 69.5531 384.06 69.5177 384.06 69.4881C384.06 69.4586 384.066 69.4232 384.066 69.3878C384.078 69.3582 384.084 69.3287 384.084 69.2992C384.084 69.2697 384.09 69.2342 384.09 69.1988V69.1516C384.09 69.1516 384.09 69.122 384.102 69.1043V68.7796L384.325 68.75C384.565 69.1161 384.788 69.3996 384.998 69.6121C385.208 69.8188 385.401 69.9546 385.575 70.0078C385.749 70.0727 385.917 70.1141 386.068 70.1436C386.218 70.1731 386.368 70.1849 386.506 70.1849C386.813 70.1849 387.083 70.1377 387.312 70.0491C387.54 69.9605 387.738 69.8188 387.895 69.624C388.051 69.435 388.171 69.2342 388.249 69.0217C388.327 68.815 388.369 68.5965 388.381 68.3662C388.381 68.1832 388.357 68.0119 388.303 67.8407C388.255 67.6753 388.177 67.5041 388.075 67.3447C387.985 67.1793 387.859 67.0376 387.708 66.9195C387.558 66.8014 387.378 66.7069 387.173 66.6302L385.743 65.9629C385.334 65.7917 385.016 65.6027 384.776 65.402C384.541 65.2012 384.385 64.9945 384.313 64.7761C384.247 64.5576 384.199 64.3332 384.163 64.1088C384.126 63.8785 384.108 63.6482 384.108 63.412V63.3825L384.114 63.3766Z" fill="white"/>
<path d="M286.111 42.8868L288.401 40.5012C288.449 40.4658 288.491 40.4363 288.539 40.4009C288.587 40.3654 288.629 40.3359 288.677 40.3005C288.731 40.2651 288.785 40.2414 288.839 40.2178C288.893 40.1942 288.942 40.1765 288.984 40.1647C289.008 40.1529 289.032 40.147 289.05 40.1411C289.074 40.1411 289.098 40.1351 289.116 40.1351H289.152C289.152 40.1351 289.182 40.1351 289.206 40.1174H289.272C289.362 40.1174 289.446 40.1292 289.518 40.1529C289.591 40.1765 289.663 40.206 289.729 40.2532C289.795 40.3005 289.849 40.3477 289.885 40.4068C289.921 40.4599 289.939 40.5249 289.939 40.5898C289.939 40.6371 289.933 40.6902 289.915 40.7493C289.897 40.8083 289.867 40.8732 289.819 40.9441C289.795 40.9795 289.765 41.0091 289.735 41.0445C289.699 41.0799 289.669 41.1035 289.633 41.1272C289.585 41.1626 289.542 41.1921 289.494 41.2275C289.446 41.263 289.398 41.2925 289.338 41.3279L286.796 42.8868H286.111Z" fill="white"/>
<path d="M231.379 57.5076H389.578V58.9365H231.379V57.5076Z" fill="white"/>
<path d="M231.379 0V38.4761H279.116L262.468 32.3114L281.153 30.6875L268.256 20.6139L286.574 23.7907L279.14 11.0834L294.874 18.6653L293.804 4.8597L305.06 15.9431L310.475 2.69852L315.896 15.9431L327.153 4.8597L326.083 18.6653L341.817 11.0834L334.383 23.7907L352.701 20.6139L339.804 30.6875L358.488 32.3114L341.841 38.4761H389.578V0H231.379Z" fill="white"/>
<path d="M336.913 42.8868L339.202 40.5012C339.25 40.4658 339.293 40.4363 339.341 40.4009C339.389 40.3654 339.431 40.3359 339.479 40.3005C339.539 40.2651 339.587 40.2414 339.641 40.2178C339.695 40.1942 339.743 40.1765 339.785 40.1647C339.809 40.1529 339.833 40.147 339.851 40.1411C339.875 40.1411 339.9 40.1351 339.918 40.1351H339.954C339.954 40.1351 339.984 40.1351 340.008 40.1174H340.074C340.164 40.1174 340.248 40.1292 340.32 40.1529C340.392 40.1765 340.464 40.206 340.537 40.2532C340.603 40.3005 340.657 40.3477 340.693 40.4068C340.729 40.4599 340.747 40.5249 340.747 40.5898C340.747 40.6371 340.741 40.6902 340.723 40.7493C340.705 40.8083 340.675 40.8732 340.627 40.9441C340.603 40.9795 340.573 41.0091 340.543 41.0445C340.507 41.0799 340.476 41.1035 340.44 41.1272C340.392 41.1626 340.35 41.1921 340.302 41.2275C340.254 41.263 340.206 41.2925 340.146 41.3279L337.604 42.8868H336.919H336.913Z" fill="white"/>
</g>
<path d="M75.073 37.8234H72.6433L72.6589 36.2687H75.073C75.7761 36.2687 76.3646 36.115 76.8386 35.8077C77.3177 35.5004 77.6771 35.0603 77.9167 34.4874C78.1615 33.9145 78.2839 33.2322 78.2839 32.4406V31.8234C78.2839 31.2088 78.2136 30.6645 78.073 30.1906C77.9375 29.7166 77.7344 29.3182 77.4636 28.9952C77.198 28.6723 76.8698 28.4275 76.4792 28.2609C76.0938 28.0942 75.6485 28.0109 75.1433 28.0109H72.5964V26.4484H75.1433C75.8985 26.4484 76.5886 26.576 77.2136 26.8312C77.8386 27.0812 78.3776 27.4432 78.8308 27.9171C79.2891 28.3911 79.6407 28.9588 79.8855 29.6202C80.1302 30.2817 80.2526 31.0213 80.2526 31.839V32.4406C80.2526 33.2583 80.1302 33.9978 79.8855 34.6593C79.6407 35.3208 79.2891 35.8885 78.8308 36.3624C78.3724 36.8312 77.8256 37.1932 77.1901 37.4484C76.5599 37.6984 75.8542 37.8234 75.073 37.8234ZM73.7292 26.4484V37.8234H71.7683V26.4484H73.7292ZM85.7605 37.9796C85.1355 37.9796 84.5703 37.8781 84.0651 37.6749C83.5651 37.4666 83.1381 37.1775 82.7839 36.8077C82.4349 36.4379 82.1667 36.0031 81.9792 35.5031C81.7917 35.0031 81.698 34.464 81.698 33.8859V33.5734C81.698 32.9119 81.7943 32.3129 81.987 31.7765C82.1797 31.24 82.448 30.7817 82.7917 30.4015C83.1355 30.0161 83.5417 29.7218 84.0105 29.5187C84.4792 29.3156 84.987 29.214 85.5339 29.214C86.1381 29.214 86.6667 29.3156 87.1198 29.5187C87.573 29.7218 87.948 30.0083 88.2448 30.3781C88.5469 30.7426 88.7709 31.1775 88.9167 31.6827C89.0677 32.1879 89.1433 32.7452 89.1433 33.3546V34.1593H82.612V32.8077H87.2839V32.6593C87.2735 32.3208 87.2058 32.0031 87.0808 31.7062C86.961 31.4093 86.7761 31.1697 86.5261 30.9874C86.2761 30.8051 85.9427 30.714 85.5261 30.714C85.2136 30.714 84.9349 30.7817 84.6901 30.9171C84.4506 31.0473 84.25 31.2374 84.0886 31.4874C83.9271 31.7374 83.8021 32.0395 83.7136 32.3937C83.6302 32.7426 83.5886 33.1359 83.5886 33.5734V33.8859C83.5886 34.2557 83.6381 34.5994 83.737 34.9171C83.8412 35.2296 83.9922 35.5031 84.1901 35.7374C84.3881 35.9718 84.6276 36.1567 84.9089 36.2921C85.1901 36.4223 85.5105 36.4874 85.8698 36.4874C86.323 36.4874 86.7266 36.3963 87.0808 36.214C87.4349 36.0317 87.7422 35.7739 88.0026 35.4406L88.9948 36.4015C88.8125 36.6671 88.5756 36.9223 88.2839 37.1671C87.9922 37.4067 87.6355 37.602 87.2136 37.7531C86.7969 37.9041 86.3125 37.9796 85.7605 37.9796ZM95.3542 35.5343C95.3542 35.3468 95.3073 35.1775 95.2136 35.0265C95.1198 34.8702 94.9401 34.7296 94.6745 34.6046C94.4141 34.4796 94.0287 34.365 93.5183 34.2609C93.0703 34.1619 92.6589 34.0447 92.2839 33.9093C91.9141 33.7687 91.5964 33.5994 91.3308 33.4015C91.0651 33.2036 90.8594 32.9692 90.7136 32.6984C90.5677 32.4275 90.4948 32.115 90.4948 31.7609C90.4948 31.4171 90.5703 31.0916 90.7214 30.7843C90.8724 30.477 91.0886 30.2062 91.3698 29.9718C91.6511 29.7374 91.9922 29.5525 92.3933 29.4171C92.7995 29.2817 93.2526 29.214 93.7526 29.214C94.461 29.214 95.0677 29.3338 95.573 29.5734C96.0834 29.8077 96.474 30.1281 96.7448 30.5343C97.0157 30.9353 97.1511 31.3885 97.1511 31.8937H95.2683C95.2683 31.6697 95.211 31.4614 95.0964 31.2687C94.987 31.0708 94.8203 30.9119 94.5964 30.7921C94.3724 30.6671 94.0912 30.6046 93.7526 30.6046C93.4297 30.6046 93.1615 30.6567 92.948 30.7609C92.7396 30.8598 92.5834 30.99 92.4792 31.1515C92.3802 31.3129 92.3308 31.49 92.3308 31.6827C92.3308 31.8234 92.3568 31.951 92.4089 32.0656C92.4662 32.1749 92.5599 32.2765 92.6901 32.3702C92.8203 32.4588 92.9974 32.5421 93.2214 32.6202C93.4506 32.6984 93.737 32.7739 94.0808 32.8468C94.7266 32.9822 95.2813 33.1567 95.7448 33.3702C96.2136 33.5786 96.573 33.8494 96.823 34.1827C97.073 34.5109 97.198 34.9275 97.198 35.4327C97.198 35.8077 97.1172 36.1515 96.9558 36.464C96.7995 36.7713 96.5703 37.0395 96.2683 37.2687C95.9662 37.4926 95.6042 37.6671 95.1823 37.7921C94.7657 37.9171 94.2969 37.9796 93.7761 37.9796C93.0105 37.9796 92.362 37.8442 91.8308 37.5734C91.2995 37.2973 90.8959 36.9458 90.6198 36.5187C90.349 36.0864 90.2136 35.6385 90.2136 35.1749H92.0339C92.0547 35.5239 92.1511 35.8025 92.323 36.0109C92.5 36.214 92.7188 36.3624 92.9792 36.4562C93.2448 36.5447 93.5183 36.589 93.7995 36.589C94.1381 36.589 94.4219 36.5447 94.6511 36.4562C94.8802 36.3624 95.0547 36.2374 95.1745 36.0812C95.2943 35.9197 95.3542 35.7374 95.3542 35.5343ZM102.573 37.9796C101.948 37.9796 101.383 37.8781 100.878 37.6749C100.378 37.4666 99.9506 37.1775 99.5964 36.8077C99.2474 36.4379 98.9792 36.0031 98.7917 35.5031C98.6042 35.0031 98.5105 34.464 98.5105 33.8859V33.5734C98.5105 32.9119 98.6068 32.3129 98.7995 31.7765C98.9922 31.24 99.2605 30.7817 99.6042 30.4015C99.948 30.0161 100.354 29.7218 100.823 29.5187C101.292 29.3156 101.8 29.214 102.346 29.214C102.951 29.214 103.479 29.3156 103.932 29.5187C104.385 29.7218 104.76 30.0083 105.057 30.3781C105.359 30.7426 105.583 31.1775 105.729 31.6827C105.88 32.1879 105.956 32.7452 105.956 33.3546V34.1593H99.4245V32.8077H104.096V32.6593C104.086 32.3208 104.018 32.0031 103.893 31.7062C103.773 31.4093 103.589 31.1697 103.339 30.9874C103.089 30.8051 102.755 30.714 102.339 30.714C102.026 30.714 101.747 30.7817 101.503 30.9171C101.263 31.0473 101.063 31.2374 100.901 31.4874C100.74 31.7374 100.615 32.0395 100.526 32.3937C100.443 32.7426 100.401 33.1359 100.401 33.5734V33.8859C100.401 34.2557 100.451 34.5994 100.55 34.9171C100.654 35.2296 100.805 35.5031 101.003 35.7374C101.201 35.9718 101.44 36.1567 101.721 36.2921C102.003 36.4223 102.323 36.4874 102.682 36.4874C103.135 36.4874 103.539 36.3963 103.893 36.214C104.247 36.0317 104.555 35.7739 104.815 35.4406L105.807 36.4015C105.625 36.6671 105.388 36.9223 105.096 37.1671C104.805 37.4067 104.448 37.602 104.026 37.7531C103.609 37.9041 103.125 37.9796 102.573 37.9796ZM109.292 31.1749V37.8234H107.409V29.3702H109.182L109.292 31.1749ZM108.956 33.2843L108.346 33.2765C108.352 32.6775 108.435 32.1281 108.596 31.6281C108.763 31.1281 108.992 30.6984 109.284 30.339C109.581 29.9796 109.935 29.7036 110.346 29.5109C110.758 29.3129 111.216 29.214 111.721 29.214C112.128 29.214 112.495 29.2713 112.823 29.3859C113.156 29.4952 113.44 29.6749 113.675 29.9249C113.914 30.1749 114.096 30.5004 114.221 30.9015C114.346 31.2973 114.409 31.7843 114.409 32.3624V37.8234H112.518V32.3546C112.518 31.9484 112.458 31.6281 112.339 31.3937C112.224 31.1541 112.055 30.9848 111.831 30.8859C111.612 30.7817 111.339 30.7296 111.01 30.7296C110.688 30.7296 110.398 30.7973 110.143 30.9327C109.888 31.0682 109.672 31.2531 109.495 31.4874C109.323 31.7218 109.19 31.9926 109.096 32.2999C109.003 32.6072 108.956 32.9353 108.956 33.2843ZM119.081 36.3312L121.151 29.3702H123.104L120.167 37.8234H118.948L119.081 36.3312ZM117.495 29.3702L119.604 36.3624L119.706 37.8234H118.487L115.534 29.3702H117.495ZM123.784 33.6906V33.5109C123.784 32.9015 123.872 32.3364 124.05 31.8156C124.227 31.2895 124.482 30.8338 124.815 30.4484C125.154 30.0577 125.565 29.7557 126.05 29.5421C126.539 29.3234 127.091 29.214 127.706 29.214C128.326 29.214 128.878 29.3234 129.362 29.5421C129.852 29.7557 130.266 30.0577 130.604 30.4484C130.943 30.8338 131.201 31.2895 131.378 31.8156C131.555 32.3364 131.643 32.9015 131.643 33.5109V33.6906C131.643 34.2999 131.555 34.865 131.378 35.3859C131.201 35.9067 130.943 36.3624 130.604 36.7531C130.266 37.1385 129.854 37.4406 129.37 37.6593C128.885 37.8728 128.336 37.9796 127.721 37.9796C127.102 37.9796 126.547 37.8728 126.057 37.6593C125.573 37.4406 125.161 37.1385 124.823 36.7531C124.484 36.3624 124.227 35.9067 124.05 35.3859C123.872 34.865 123.784 34.2999 123.784 33.6906ZM125.667 33.5109V33.6906C125.667 34.0708 125.706 34.4301 125.784 34.7687C125.862 35.1072 125.984 35.4041 126.151 35.6593C126.318 35.9145 126.531 36.115 126.792 36.2609C127.052 36.4067 127.362 36.4796 127.721 36.4796C128.07 36.4796 128.372 36.4067 128.628 36.2609C128.888 36.115 129.102 35.9145 129.268 35.6593C129.435 35.4041 129.557 35.1072 129.635 34.7687C129.719 34.4301 129.76 34.0708 129.76 33.6906V33.5109C129.76 33.1359 129.719 32.7817 129.635 32.4484C129.557 32.1098 129.432 31.8103 129.26 31.5499C129.094 31.2895 128.88 31.0864 128.62 30.9406C128.365 30.7895 128.06 30.714 127.706 30.714C127.352 30.714 127.044 30.7895 126.784 30.9406C126.529 31.0864 126.318 31.2895 126.151 31.5499C125.984 31.8103 125.862 32.1098 125.784 32.4484C125.706 32.7817 125.667 33.1359 125.667 33.5109ZM135.237 25.8234V37.8234H133.346V25.8234H135.237ZM140.05 36.3312L142.12 29.3702H144.073L141.135 37.8234H139.917L140.05 36.3312ZM138.464 29.3702L140.573 36.3624L140.675 37.8234H139.456L136.503 29.3702H138.464ZM147.253 29.3702V37.8234H145.362V29.3702H147.253ZM145.237 27.1515C145.237 26.865 145.331 26.6281 145.518 26.4406C145.711 26.2478 145.977 26.1515 146.315 26.1515C146.648 26.1515 146.911 26.2478 147.104 26.4406C147.297 26.6281 147.393 26.865 147.393 27.1515C147.393 27.4327 147.297 27.6671 147.104 27.8546C146.911 28.0421 146.648 28.1359 146.315 28.1359C145.977 28.1359 145.711 28.0421 145.518 27.8546C145.331 27.6671 145.237 27.4327 145.237 27.1515ZM154.471 36.0734V25.8234H156.362V37.8234H154.651L154.471 36.0734ZM148.971 33.6906V33.5265C148.971 32.8859 149.047 32.3025 149.198 31.7765C149.349 31.2452 149.568 30.7895 149.854 30.4093C150.141 30.0239 150.49 29.7296 150.901 29.5265C151.313 29.3182 151.776 29.214 152.292 29.214C152.802 29.214 153.25 29.3129 153.635 29.5109C154.021 29.7088 154.349 29.9926 154.62 30.3624C154.891 30.727 155.107 31.1645 155.268 31.6749C155.43 32.1801 155.544 32.7426 155.612 33.3624V33.8859C155.544 34.49 155.43 35.0421 155.268 35.5421C155.107 36.0421 154.891 36.4744 154.62 36.839C154.349 37.2036 154.018 37.4848 153.628 37.6827C153.242 37.8807 152.792 37.9796 152.276 37.9796C151.766 37.9796 151.305 37.8728 150.893 37.6593C150.487 37.4458 150.141 37.1463 149.854 36.7609C149.568 36.3754 149.349 35.9223 149.198 35.4015C149.047 34.8754 148.971 34.3051 148.971 33.6906ZM150.854 33.5265V33.6906C150.854 34.076 150.888 34.4353 150.956 34.7687C151.029 35.102 151.141 35.3963 151.292 35.6515C151.443 35.9015 151.638 36.0994 151.878 36.2452C152.122 36.3859 152.414 36.4562 152.753 36.4562C153.18 36.4562 153.531 36.3624 153.807 36.1749C154.083 35.9874 154.3 35.7348 154.456 35.4171C154.617 35.0942 154.727 34.7348 154.784 34.339V32.9249C154.753 32.6176 154.688 32.3312 154.589 32.0656C154.495 31.7999 154.367 31.5682 154.206 31.3702C154.044 31.1671 153.844 31.0109 153.604 30.9015C153.37 30.7869 153.091 30.7296 152.768 30.7296C152.425 30.7296 152.133 30.8025 151.893 30.9484C151.654 31.0942 151.456 31.2947 151.3 31.5499C151.148 31.8051 151.036 32.102 150.964 32.4406C150.891 32.7791 150.854 33.1411 150.854 33.5265ZM157.971 33.6906V33.5109C157.971 32.9015 158.06 32.3364 158.237 31.8156C158.414 31.2895 158.669 30.8338 159.003 30.4484C159.341 30.0577 159.753 29.7557 160.237 29.5421C160.727 29.3234 161.279 29.214 161.893 29.214C162.513 29.214 163.065 29.3234 163.55 29.5421C164.039 29.7557 164.453 30.0577 164.792 30.4484C165.13 30.8338 165.388 31.2895 165.565 31.8156C165.742 32.3364 165.831 32.9015 165.831 33.5109V33.6906C165.831 34.2999 165.742 34.865 165.565 35.3859C165.388 35.9067 165.13 36.3624 164.792 36.7531C164.453 37.1385 164.042 37.4406 163.557 37.6593C163.073 37.8728 162.523 37.9796 161.909 37.9796C161.289 37.9796 160.734 37.8728 160.245 37.6593C159.76 37.4406 159.349 37.1385 159.01 36.7531C158.672 36.3624 158.414 35.9067 158.237 35.3859C158.06 34.865 157.971 34.2999 157.971 33.6906ZM159.854 33.5109V33.6906C159.854 34.0708 159.893 34.4301 159.971 34.7687C160.05 35.1072 160.172 35.4041 160.339 35.6593C160.505 35.9145 160.719 36.115 160.979 36.2609C161.24 36.4067 161.55 36.4796 161.909 36.4796C162.258 36.4796 162.56 36.4067 162.815 36.2609C163.076 36.115 163.289 35.9145 163.456 35.6593C163.622 35.4041 163.745 35.1072 163.823 34.7687C163.906 34.4301 163.948 34.0708 163.948 33.6906V33.5109C163.948 33.1359 163.906 32.7817 163.823 32.4484C163.745 32.1098 163.62 31.8103 163.448 31.5499C163.281 31.2895 163.068 31.0864 162.807 30.9406C162.552 30.7895 162.247 30.714 161.893 30.714C161.539 30.714 161.232 30.7895 160.971 30.9406C160.716 31.0864 160.505 31.2895 160.339 31.5499C160.172 31.8103 160.05 32.1098 159.971 32.4484C159.893 32.7817 159.854 33.1359 159.854 33.5109ZM173.284 30.9952V41.0734H171.401V29.3702H173.135L173.284 30.9952ZM178.792 33.5187V33.6827C178.792 34.2973 178.719 34.8676 178.573 35.3937C178.432 35.9145 178.221 36.3702 177.94 36.7609C177.664 37.1463 177.323 37.4458 176.917 37.6593C176.51 37.8728 176.042 37.9796 175.51 37.9796C174.984 37.9796 174.523 37.8833 174.128 37.6906C173.737 37.4926 173.406 37.214 173.135 36.8546C172.865 36.4952 172.646 36.0734 172.479 35.589C172.318 35.0994 172.203 34.5629 172.135 33.9796V33.3468C172.203 32.727 172.318 32.1645 172.479 31.6593C172.646 31.1541 172.865 30.7192 173.135 30.3546C173.406 29.99 173.737 29.7088 174.128 29.5109C174.518 29.3129 174.974 29.214 175.495 29.214C176.026 29.214 176.497 29.3182 176.909 29.5265C177.32 29.7296 177.667 30.0213 177.948 30.4015C178.229 30.7765 178.44 31.2296 178.581 31.7609C178.721 32.2869 178.792 32.8728 178.792 33.5187ZM176.909 33.6827V33.5187C176.909 33.1281 176.872 32.7661 176.8 32.4327C176.727 32.0942 176.612 31.7973 176.456 31.5421C176.3 31.2869 176.099 31.089 175.854 30.9484C175.615 30.8025 175.326 30.7296 174.987 30.7296C174.654 30.7296 174.367 30.7869 174.128 30.9015C173.888 31.0109 173.688 31.1645 173.526 31.3624C173.365 31.5603 173.24 31.7921 173.151 32.0577C173.063 32.3182 173 32.602 172.964 32.9093V34.4249C173.026 34.7999 173.133 35.1437 173.284 35.4562C173.435 35.7687 173.648 36.0187 173.925 36.2062C174.206 36.3885 174.565 36.4796 175.003 36.4796C175.341 36.4796 175.63 36.4067 175.87 36.2609C176.109 36.115 176.305 35.9145 176.456 35.6593C176.612 35.3989 176.727 35.0994 176.8 34.7609C176.872 34.4223 176.909 34.0629 176.909 33.6827ZM180.034 33.6906V33.5109C180.034 32.9015 180.122 32.3364 180.3 31.8156C180.477 31.2895 180.732 30.8338 181.065 30.4484C181.404 30.0577 181.815 29.7557 182.3 29.5421C182.789 29.3234 183.341 29.214 183.956 29.214C184.576 29.214 185.128 29.3234 185.612 29.5421C186.102 29.7557 186.516 30.0577 186.854 30.4484C187.193 30.8338 187.451 31.2895 187.628 31.8156C187.805 32.3364 187.893 32.9015 187.893 33.5109V33.6906C187.893 34.2999 187.805 34.865 187.628 35.3859C187.451 35.9067 187.193 36.3624 186.854 36.7531C186.516 37.1385 186.104 37.4406 185.62 37.6593C185.135 37.8728 184.586 37.9796 183.971 37.9796C183.352 37.9796 182.797 37.8728 182.307 37.6593C181.823 37.4406 181.411 37.1385 181.073 36.7531C180.734 36.3624 180.477 35.9067 180.3 35.3859C180.122 34.865 180.034 34.2999 180.034 33.6906ZM181.917 33.5109V33.6906C181.917 34.0708 181.956 34.4301 182.034 34.7687C182.112 35.1072 182.234 35.4041 182.401 35.6593C182.568 35.9145 182.781 36.115 183.042 36.2609C183.302 36.4067 183.612 36.4796 183.971 36.4796C184.32 36.4796 184.622 36.4067 184.878 36.2609C185.138 36.115 185.352 35.9145 185.518 35.6593C185.685 35.4041 185.807 35.1072 185.885 34.7687C185.969 34.4301 186.01 34.0708 186.01 33.6906V33.5109C186.01 33.1359 185.969 32.7817 185.885 32.4484C185.807 32.1098 185.682 31.8103 185.51 31.5499C185.344 31.2895 185.13 31.0864 184.87 30.9406C184.615 30.7895 184.31 30.714 183.956 30.714C183.602 30.714 183.294 30.7895 183.034 30.9406C182.779 31.0864 182.568 31.2895 182.401 31.5499C182.234 31.8103 182.112 32.1098 182.034 32.4484C181.956 32.7817 181.917 33.1359 181.917 33.5109ZM191.362 30.9796V37.8234H189.479V29.3702H191.276L191.362 30.9796ZM193.948 29.3156L193.932 31.0656C193.818 31.0447 193.693 31.0291 193.557 31.0187C193.427 31.0083 193.297 31.0031 193.167 31.0031C192.844 31.0031 192.56 31.0499 192.315 31.1437C192.07 31.2322 191.865 31.3624 191.698 31.5343C191.536 31.701 191.411 31.9041 191.323 32.1437C191.234 32.3833 191.182 32.6515 191.167 32.9484L190.737 32.9796C190.737 32.4484 190.789 31.9562 190.893 31.5031C190.997 31.0499 191.154 30.6515 191.362 30.3077C191.576 29.964 191.841 29.6958 192.159 29.5031C192.482 29.3103 192.854 29.214 193.276 29.214C193.391 29.214 193.513 29.2244 193.643 29.2452C193.779 29.2661 193.88 29.2895 193.948 29.3156Z" fill="white"/>
<defs>
<clipPath id="clip0_105_746">
<rect width="158.271" height="71" fill="white" transform="translate(231.367)"/>
</clipPath>
</defs>
</svg>
