<svg width="223" height="68" viewBox="0 0 223 68" fill="none" xmlns="http://www.w3.org/2000/svg">
<rect width="59.2627" height="66.6706" transform="translate(0 0.572815)" fill="#053F63"/>
<path d="M52.2496 8.17599H7.13818V59.8953H52.2496V8.17599Z" fill="#FDFDFD"/>
<path d="M16.8135 29.4988H0.0742188V38.3197H16.8135V29.4988Z" fill="#FFCD00"/>
<path d="M35.7236 28.1025L25.68 22.2992V29.4988H16.9038V38.3197H25.68V45.5193L35.7236 39.7137L45.7671 33.9081L35.7236 28.1025Z" fill="#009245"/>
<path d="M22.0239 23.2293H9.25342V10.4444H22.0239V23.2293ZM10.5462 21.935H20.7334V11.7364H10.5462V21.935Z" fill="#004A7C"/>
<path d="M50.0278 23.2293H37.2573V10.4444H50.0278V23.2293ZM38.5501 21.935H48.7373V11.7364H38.5501V21.935Z" fill="#004A7C"/>
<path d="M22.0239 57.2489H9.25342V44.464H22.0239V57.2489ZM10.5462 55.9546H20.7334V45.7559H10.5462V55.9546Z" fill="#004A7C"/>
<path d="M50.0278 57.2489H37.2573V44.464H50.0278V57.2489ZM38.5501 55.9546H48.7373V45.7559H38.5501V55.9546Z" fill="#004A7C"/>
<path d="M18.2428 14.2275H13.0322V19.4439H18.2428V14.2275Z" fill="#004A7C"/>
<path d="M18.8891 20.0911H12.3857V13.5804H18.8891V20.0911ZM13.6785 18.7968H17.5987V14.8723H13.6785V18.7968Z" fill="#004A7C"/>
<path d="M46.2467 14.2275H41.0361V19.4439H46.2467V14.2275Z" fill="#004A7C"/>
<path d="M46.8955 20.0911H40.3921V13.5804H46.8955V20.0911ZM41.6849 18.7968H45.605V14.8723H41.6849V18.7968Z" fill="#004A7C"/>
<path d="M18.2428 48.2818H13.0322V53.4983H18.2428V48.2818Z" fill="#004A7C"/>
<path d="M18.8891 54.1454H12.3857V47.6347H18.8891V54.1454ZM13.6785 52.8511H17.5987V48.9266H13.6785V52.8511Z" fill="#004A7C"/>
<path d="M46.2467 48.2818H41.0361V53.4983H46.2467V48.2818Z" fill="#004A7C"/>
<path d="M46.8955 54.1454H40.3921V47.6347H46.8955V54.1454ZM41.6849 52.8511H45.605V48.9266H41.6849V52.8511Z" fill="#004A7C"/>
<path d="M98.2947 42.2578V47.3166H83.7554V42.2578H98.2947ZM86.0974 20.0367V47.3166H79.521V20.0367H86.0974ZM96.4211 30.8662V35.7564H83.7554V30.8662H96.4211ZM98.3509 20.0367V25.1142H83.7554V20.0367H98.3509Z" fill="white"/>
<path d="M106.895 31.3721V47.3166H100.58V27.044H106.501L106.895 31.3721ZM106.145 36.4871L104.665 36.5245C104.665 34.9757 104.852 33.5955 105.227 32.3839C105.602 31.1598 106.133 30.123 106.82 29.2736C107.507 28.4243 108.325 27.781 109.274 27.3438C110.236 26.8941 111.304 26.6693 112.478 26.6693C113.415 26.6693 114.27 26.8067 115.045 27.0815C115.832 27.3563 116.506 27.7997 117.068 28.4118C117.643 29.0238 118.08 29.8357 118.38 30.8475C118.692 31.8467 118.848 33.0833 118.848 34.5573V47.3166H112.497V34.5385C112.497 33.7266 112.384 33.1083 112.159 32.6836C111.935 32.2465 111.61 31.9467 111.185 31.7843C110.76 31.6219 110.242 31.5407 109.63 31.5407C108.981 31.5407 108.431 31.6656 107.981 31.9154C107.532 32.1653 107.169 32.515 106.895 32.9647C106.632 33.4019 106.439 33.9202 106.314 34.5198C106.201 35.1193 106.145 35.7751 106.145 36.4871Z" fill="white"/>
<path d="M129.659 42.9885L133.65 27.044H140.301L133.669 47.3166H129.734L129.659 42.9885ZM127.298 27.044L131.233 42.9885L131.195 47.3166H127.242L120.628 27.044H127.298Z" fill="white"/>
<path d="M148.845 27.044V47.3166H142.512V27.044H148.845ZM142.137 21.8166C142.137 20.9173 142.462 20.1803 143.112 19.6058C143.761 19.0312 144.604 18.7439 145.641 18.7439C146.678 18.7439 147.521 19.0312 148.17 19.6058C148.82 20.1803 149.145 20.9173 149.145 21.8166C149.145 22.716 148.82 23.4529 148.17 24.0275C147.521 24.6021 146.678 24.8894 145.641 24.8894C144.604 24.8894 143.761 24.6021 143.112 24.0275C142.462 23.4529 142.137 22.716 142.137 21.8166Z" fill="white"/>
<path d="M163.272 42.2204V33.864C163.272 33.2894 163.191 32.796 163.028 32.3839C162.866 31.9717 162.61 31.6531 162.26 31.4283C161.91 31.191 161.442 31.0723 160.855 31.0723C160.38 31.0723 159.974 31.1535 159.637 31.3159C159.3 31.4783 159.044 31.7218 158.869 32.0466C158.694 32.3714 158.606 32.7836 158.606 33.2832H152.292C152.292 32.3464 152.498 31.4783 152.911 30.6789C153.335 29.867 153.935 29.1612 154.709 28.5617C155.496 27.9621 156.433 27.4999 157.52 27.1752C158.619 26.8379 159.843 26.6693 161.192 26.6693C162.803 26.6693 164.24 26.9379 165.501 27.475C166.775 28.0121 167.781 28.8177 168.518 29.8919C169.255 30.9537 169.623 32.2902 169.623 33.9015V42.2016C169.623 43.5256 169.698 44.5312 169.848 45.2181C169.998 45.8927 170.21 46.486 170.485 46.9981V47.3166H164.152C163.853 46.6921 163.628 45.9301 163.478 45.0308C163.341 44.119 163.272 43.1821 163.272 42.2204ZM164.04 34.932L164.077 38.3045H161.286C160.699 38.3045 160.199 38.3857 159.787 38.5481C159.387 38.7104 159.062 38.9353 158.813 39.2226C158.575 39.4974 158.4 39.8096 158.288 40.1594C158.188 40.5091 158.138 40.8776 158.138 41.2648C158.138 41.6395 158.226 41.9768 158.4 42.2766C158.588 42.5639 158.838 42.7887 159.15 42.9511C159.462 43.1134 159.812 43.1946 160.199 43.1946C160.899 43.1946 161.492 43.0635 161.979 42.8012C162.479 42.5264 162.86 42.1954 163.122 41.8082C163.384 41.4209 163.515 41.0587 163.515 40.7215L164.902 43.3071C164.652 43.8067 164.365 44.3126 164.04 44.8247C163.728 45.3368 163.334 45.8115 162.86 46.2486C162.397 46.6733 161.829 47.0231 161.155 47.2979C160.48 47.5602 159.662 47.6913 158.7 47.6913C157.451 47.6913 156.302 47.4353 155.253 46.9231C154.216 46.411 153.385 45.699 152.761 44.7872C152.136 43.8629 151.824 42.8012 151.824 41.6021C151.824 40.5528 152.011 39.616 152.386 38.7916C152.773 37.9672 153.354 37.2678 154.129 36.6932C154.903 36.1186 155.89 35.6814 157.089 35.3816C158.288 35.0819 159.699 34.932 161.323 34.932H164.04Z" fill="white"/>
<path d="M187.982 35.7189H180.956L180.918 31.4096H186.614C187.638 31.4096 188.456 31.2971 189.069 31.0723C189.681 30.835 190.124 30.4915 190.399 30.0418C190.686 29.5921 190.83 29.0301 190.83 28.3556C190.83 27.5811 190.686 26.9566 190.399 26.4819C190.112 26.0073 189.656 25.6638 189.031 25.4514C188.419 25.2266 187.626 25.1142 186.652 25.1142H183.429V47.3166H176.853V20.0367H186.652C188.338 20.0367 189.843 20.1928 191.167 20.5051C192.491 20.8049 193.615 21.267 194.54 21.8916C195.476 22.5161 196.188 23.303 196.675 24.2523C197.163 25.1891 197.406 26.2946 197.406 27.5686C197.406 28.6803 197.169 29.7233 196.694 30.6976C196.22 31.6719 195.426 32.465 194.315 33.0771C193.215 33.6766 191.71 33.9889 189.799 34.0139L187.982 35.7189ZM187.72 47.3166H179.363L181.612 42.2578H187.72C188.619 42.2578 189.337 42.1204 189.874 41.8456C190.424 41.5583 190.817 41.1836 191.055 40.7214C191.304 40.2468 191.429 39.7222 191.429 39.1476C191.429 38.4481 191.311 37.8423 191.073 37.3302C190.848 36.8181 190.486 36.4246 189.987 36.1498C189.487 35.8625 188.819 35.7189 187.982 35.7189H182.455L182.492 31.4096H189.106L190.642 33.1333C192.466 33.0583 193.909 33.3144 194.97 33.9015C196.045 34.4885 196.813 35.263 197.275 36.2248C197.737 37.1866 197.968 38.1921 197.968 39.2413C197.968 41.0275 197.581 42.5201 196.807 43.7192C196.045 44.9184 194.902 45.8177 193.378 46.4173C191.854 47.0168 189.968 47.3166 187.72 47.3166Z" fill="#FFCD00"/>
<path d="M216.423 20.0367H223V37.8548C223 39.9782 222.556 41.7769 221.67 43.2508C220.783 44.7123 219.54 45.8177 217.941 46.5671C216.342 47.3166 214.462 47.6913 212.301 47.6913C210.165 47.6913 208.286 47.3166 206.662 46.5671C205.051 45.8177 203.789 44.7123 202.877 43.2508C201.978 41.7769 201.528 39.9782 201.528 37.8548V20.0367H208.123V37.8548C208.123 38.979 208.286 39.8971 208.61 40.609C208.935 41.3085 209.41 41.8206 210.034 42.1454C210.659 42.4702 211.415 42.6325 212.301 42.6325C213.201 42.6325 213.956 42.4702 214.569 42.1454C215.181 41.8206 215.643 41.3085 215.955 40.609C216.267 39.8971 216.423 38.979 216.423 37.8548V20.0367Z" fill="#FFCD00"/>
</svg>
