<svg width="155" height="168" viewBox="0 0 155 168" fill="none" xmlns="http://www.w3.org/2000/svg">
    <g clip-path="url(#clip0_182_302)">
        <path d="M9.37348 150.078H0V113.641H9.37348V150.078Z" fill="#FFFFFF" />
        <path
            d="M21.4327 123L21.6985 126.179C23.5012 123.727 25.9855 122.501 29.1557 122.501C31.8737 122.501 33.9057 123.343 35.2497 125.029C36.5936 126.715 37.2881 129.249 37.3374 132.636V150.078H29.1793V132.985C29.1793 131.619 28.9135 130.612 28.3819 129.969C27.8504 129.326 26.8858 129.005 25.4861 129.005C23.8935 129.005 22.7103 129.656 21.9386 130.957V150.076H13.8041V122.998H21.4306L21.4327 123Z"
            fill="#FFFFFF" />
        <path
            d="M71.4425 150.577C67.4363 150.577 64.1932 149.339 61.7153 146.861C59.2375 144.384 57.9985 141.16 57.9985 137.188V136.488C57.9985 133.718 58.4937 131.274 59.484 129.155C60.4743 127.036 61.9168 125.398 63.816 124.236C65.7151 123.077 67.9679 122.497 70.5744 122.497C74.244 122.497 77.1399 123.677 79.2641 126.038C81.3883 128.399 82.4493 131.689 82.4493 135.912V139.189H66.2788C66.5682 140.708 67.2048 141.901 68.1865 142.769C69.1683 143.636 70.4393 144.069 71.9998 144.069C74.5741 144.069 76.5847 143.135 78.0337 141.267L81.7505 145.822C80.7367 147.274 79.3005 148.429 77.4421 149.288C75.5837 150.147 73.5838 150.577 71.4446 150.577H71.4425ZM70.5251 129.005C68.1437 129.005 66.7268 130.64 66.2767 133.911H74.482V133.26C74.5141 131.908 74.184 130.86 73.4917 130.119C72.7993 129.378 71.809 129.005 70.5229 129.005H70.5251Z"
            fill="#FFFFFF" />
        <path
            d="M84.7643 136.338C84.7643 133.602 85.1994 131.182 86.0675 129.08C86.9356 126.979 88.1832 125.355 89.8079 124.213C91.4327 123.071 93.3232 122.499 95.4796 122.499C98.1997 122.499 100.322 123.45 101.852 125.353L102.142 123H109.528V149.052C109.528 151.439 108.992 153.51 107.923 155.271C106.853 157.032 105.303 158.381 103.275 159.326C101.248 160.269 98.8985 160.74 96.2277 160.74C94.3135 160.74 92.4573 160.365 90.6653 159.613C88.8712 158.863 87.4994 157.887 86.5498 156.685L89.9537 151.73C91.4648 153.581 93.4604 154.508 95.9404 154.508C99.5436 154.508 101.346 152.589 101.346 148.752V147.902C99.7859 149.686 97.8139 150.579 95.4324 150.579C92.2472 150.579 89.6729 149.316 87.7094 146.788C85.746 144.26 84.7643 140.877 84.7643 136.64V136.34V136.338ZM92.9224 136.863C92.9224 139.082 93.3254 140.839 94.1292 142.131C94.933 143.424 96.0605 144.069 97.5073 144.069C99.2607 144.069 100.54 143.461 101.344 142.242V130.856C100.555 129.622 99.2929 129.005 97.5545 129.005C96.1055 129.005 94.9716 129.678 94.1506 131.019C93.3297 132.362 92.9203 134.309 92.9203 136.863H92.9224Z"
            fill="#FFFFFF" />
        <path
            d="M129.947 130.633L127.268 130.434C124.708 130.434 123.068 131.269 122.344 132.936V150.078H114.209V123H121.836L122.102 126.479C123.469 123.827 125.377 122.501 127.823 122.501C128.691 122.501 129.447 122.602 130.091 122.801L129.945 130.635L129.947 130.633Z"
            fill="#FFFFFF" />
        <path
            d="M146.868 150.078C146.578 149.528 146.321 148.718 146.096 147.651C144.6 149.603 142.508 150.579 139.82 150.579C137.359 150.579 135.267 149.808 133.544 148.264C131.822 146.721 130.961 144.78 130.961 142.445C130.961 139.508 132.007 137.289 134.099 135.787C136.191 134.286 139.23 133.536 143.222 133.536H145.732V132.103C145.732 129.605 144.694 128.356 142.617 128.356C140.686 128.356 139.721 129.346 139.721 131.323H131.587C131.587 128.707 132.661 126.582 134.808 124.95C136.956 123.317 139.695 122.499 143.026 122.499C146.357 122.499 148.988 123.341 150.919 125.027C152.85 126.713 153.838 129.022 153.888 131.959V143.947C153.92 146.434 154.291 148.334 154.998 149.654V150.08H146.863L146.868 150.078ZM141.775 144.573C142.789 144.573 143.629 144.348 144.298 143.898C144.964 143.448 145.444 142.938 145.734 142.37V138.041H143.369C140.538 138.041 139.121 139.358 139.121 141.996C139.121 142.762 139.37 143.384 139.869 143.859C140.369 144.335 141.003 144.573 141.777 144.573H141.775Z"
            fill="#FFFFFF" />
        <path d="M70.5637 40.893V71.4048L95.5439 85.0529V27.5791L40.184 0L39.6374 56.9212L70.5637 40.893Z"
            fill="#043F62" />
        <path d="M22.0351 66.8332V133.664L72.7843 102.471L45.1912 86.3832L70.5637 71.4047V40.8929L22.0351 66.8332Z"
            fill="#FFCD03" />
        <path
            d="M91.6492 114.121L147.166 79.1725L95.5439 51.9812V85.0529L70.5637 71.4048L45.1912 86.3833L91.6492 114.121Z"
            fill="#009245" />
        <path
            d="M51.313 116.267V123H55.6085V128.857H51.313V141.246C51.313 142.263 51.4888 142.972 51.8446 143.373C52.1982 143.774 52.8992 143.973 53.9452 143.973C54.749 143.973 55.4263 143.924 55.9729 143.823V149.853C54.5089 150.337 52.9806 150.579 51.388 150.579C48.5886 150.579 46.5201 149.896 45.1848 148.527C43.8494 147.16 43.1806 145.082 43.1806 142.295V128.857H39.8496V123H43.1806V116.267H51.3151H51.313Z"
            fill="#FFFFFF" />
        <path
            d="M119.995 165.138L123.109 155.466H125.45L121.041 167.829H118.979L114.585 155.466H116.917L119.997 165.138H119.995Z"
            fill="#FFFFFF" />
        <path
            d="M135.529 161.972C135.529 163.184 135.321 164.247 134.905 165.159C134.489 166.074 133.895 166.775 133.126 167.265C132.354 167.756 131.467 168 130.461 168C129.456 168 128.584 167.756 127.806 167.265C127.027 166.775 126.427 166.078 126.005 165.172C125.581 164.266 125.366 163.223 125.362 162.038V161.342C125.362 160.136 125.574 159.071 125.996 158.15C126.421 157.227 127.017 156.522 127.788 156.031C128.56 155.541 129.445 155.297 130.444 155.297C131.443 155.297 132.328 155.539 133.1 156.023C133.872 156.507 134.468 157.203 134.888 158.112C135.308 159.02 135.522 160.078 135.526 161.282V161.97L135.529 161.972ZM133.4 161.327C133.4 159.958 133.143 158.906 132.631 158.176C132.118 157.445 131.389 157.081 130.446 157.081C129.503 157.081 128.807 157.445 128.288 158.171C127.769 158.9 127.503 159.928 127.493 161.258V161.972C127.493 163.33 127.754 164.38 128.279 165.123C128.804 165.864 129.531 166.235 130.463 166.235C131.396 166.235 132.131 165.873 132.639 165.149C133.147 164.425 133.4 163.366 133.4 161.974V161.329V161.327Z"
            fill="#FFFFFF" />
        <path d="M144.818 157.199H140.997V167.831H138.883V157.199H135.096V155.466H144.816V157.199H144.818Z"
            fill="#FFFFFF" />
        <path
            d="M155 161.972C155 163.184 154.792 164.247 154.376 165.159C153.96 166.074 153.367 166.775 152.597 167.265C151.825 167.756 150.938 168 149.933 168C148.927 168 148.055 167.756 147.277 167.265C146.499 166.775 145.899 166.078 145.476 165.172C145.052 164.266 144.838 163.223 144.833 162.038V161.342C144.833 160.136 145.046 159.071 145.468 158.15C145.892 157.227 146.488 156.522 147.26 156.031C148.032 155.541 148.917 155.297 149.916 155.297C150.915 155.297 151.8 155.539 152.571 156.023C153.343 156.507 153.939 157.203 154.359 158.112C154.779 159.02 154.994 160.078 154.998 161.282V161.97L155 161.972ZM152.872 161.327C152.872 159.958 152.614 158.906 152.102 158.176C151.59 157.445 150.861 157.081 149.918 157.081C148.975 157.081 148.278 157.445 147.759 158.171C147.241 158.9 146.975 159.928 146.964 161.258V161.972C146.964 163.33 147.226 164.38 147.751 165.123C148.276 165.864 149.003 166.235 149.935 166.235C150.867 166.235 151.603 165.873 152.111 165.149C152.619 164.425 152.872 163.366 152.872 161.974V161.329V161.327Z"
            fill="#FFFFFF" />
    </g>
    <defs>
        <clipPath id="clip0_182_302">
            <rect width="155" height="168" fill="white" />
        </clipPath>
    </defs>
</svg>