<svg width="276" height="51" viewBox="0 0 276 51" fill="none" xmlns="http://www.w3.org/2000/svg">
    <g clip-path="url(#clip0_182_374)">
        <path d="M9.13721 40.3679H0V5.55347H9.13721V40.3679Z" fill="#FFFFFF" />
        <path
            d="M20.8951 14.4975L21.1545 17.5342C22.9121 15.1908 25.334 14.0203 28.425 14.0203C31.0747 14.0203 33.0554 14.8252 34.3669 16.4349C35.6761 18.0447 36.3549 20.4689 36.4034 23.7027V40.3679H28.4492V24.0374C28.4492 22.7316 28.1898 21.77 27.6734 21.1574C27.1546 20.5448 26.214 20.2362 24.8491 20.2362C23.2951 20.2362 22.1436 20.8583 21.3896 22.1V40.3679H13.4597V14.4975H20.8951Z"
            fill="#FFFFFF" />
        <path
            d="M69.6528 40.8451C65.7472 40.8451 62.5859 39.6627 60.1689 37.2955C57.7519 34.9283 56.5446 31.8488 56.5446 28.0547V27.3851C56.5446 24.7402 57.027 22.4039 57.9919 20.3786C58.9567 18.3533 60.3653 16.7886 62.215 15.6798C64.0648 14.571 66.2636 14.0178 68.8043 14.0178C72.3801 14.0178 75.2044 15.1456 77.2748 17.4012C79.3452 19.6568 80.3803 22.8004 80.3803 26.8343V29.966H64.6151C64.8987 31.4167 65.5169 32.5564 66.4745 33.385C67.4321 34.2136 68.6709 34.6291 70.1934 34.6291C72.7026 34.6291 74.6638 33.7364 76.0772 31.9509L79.7015 36.303C78.7124 37.6896 77.3136 38.7937 75.5002 39.6152C73.6892 40.4367 71.7377 40.8474 69.6528 40.8474V40.8451ZM68.7582 20.2337C66.4357 20.2337 65.0563 21.796 64.6175 24.9206H72.6177V24.2985C72.6492 23.0069 72.3268 22.0073 71.6528 21.2974C70.9789 20.5875 70.014 20.2337 68.7582 20.2337Z"
            fill="#FFFFFF" />
        <path
            d="M82.6422 27.2403C82.6422 24.6262 83.0665 22.3136 83.9125 20.3073C84.7586 18.2987 85.9756 16.7483 87.5587 15.6561C89.1442 14.5639 90.9867 14.0178 93.0885 14.0178C95.7407 14.0178 97.8111 14.9272 99.302 16.7435L99.5833 14.4951H106.783V39.3849C106.783 41.6642 106.262 43.6444 105.22 45.3254C104.177 47.0064 102.667 48.298 100.691 49.1979C98.7154 50.0977 96.4244 50.5488 93.8207 50.5488C91.954 50.5488 90.1454 50.1903 88.3975 49.4733C86.6472 48.7562 85.3114 47.8231 84.3853 46.6763L87.7042 41.942C89.1781 43.7108 91.1249 44.5965 93.5395 44.5965C97.0523 44.5965 98.8099 42.7635 98.8099 39.0976V38.2856C97.2874 39.9903 95.365 40.8427 93.0449 40.8427C89.9394 40.8427 87.4278 39.6342 85.515 37.2195C83.5998 34.8048 82.6446 31.5734 82.6446 27.5229V27.2356L82.6422 27.2403ZM90.5964 27.7413C90.5964 29.8615 90.9891 31.5402 91.7721 32.7748C92.5576 34.0094 93.6558 34.6268 95.0668 34.6268C96.7759 34.6268 98.0244 34.0451 98.8075 32.8817V22.0026C98.039 20.8226 96.8074 20.2337 95.1128 20.2337C93.7019 20.2337 92.594 20.8748 91.794 22.1593C90.9939 23.4438 90.5939 25.3029 90.5939 27.7413H90.5964Z"
            fill="#FFFFFF" />
        <path
            d="M126.694 21.789L124.083 21.5967C121.589 21.5967 119.989 22.3944 119.283 23.9876V40.3655H111.353V14.4975H118.789L119.048 17.8215C120.381 15.2881 122.241 14.0203 124.626 14.0203C125.472 14.0203 126.212 14.1152 126.837 14.3076L126.697 21.7914L126.694 21.789Z"
            fill="#FFFFFF" />
        <path
            d="M143.189 40.3679C142.906 39.8408 142.656 39.0691 142.435 38.0482C140.976 39.912 138.937 40.8451 136.316 40.8451C133.916 40.8451 131.877 40.1091 130.197 38.6323C128.52 37.1578 127.678 35.3059 127.678 33.074C127.678 30.2676 128.699 28.1473 130.738 26.7133C132.777 25.2792 135.742 24.5622 139.633 24.5622H142.079V23.1922C142.079 20.806 141.068 19.6117 139.044 19.6117C137.162 19.6117 136.219 20.5567 136.219 22.4466H128.289C128.289 19.9465 129.337 17.9165 131.431 16.3566C133.526 14.7966 136.197 14.0155 139.444 14.0155C142.69 14.0155 145.257 14.8204 147.138 16.4302C149.022 18.0399 149.985 20.248 150.033 23.0521V34.5057C150.065 36.88 150.426 38.6987 151.114 39.9571V40.3631H143.184L143.189 40.3679ZM138.224 35.1088C139.213 35.1088 140.033 34.8927 140.682 34.463C141.332 34.0332 141.8 33.5465 142.084 33.0052V28.8691H139.778C137.017 28.8691 135.637 30.1275 135.637 32.6466C135.637 33.3803 135.88 33.9739 136.367 34.4274C136.854 34.8809 137.473 35.1088 138.227 35.1088H138.224Z"
            fill="#FFFFFF" />
        <path d="M169.316 15.6015V27.2451L179.042 32.452V10.5229L157.488 0L157.274 21.7177L169.316 15.6015Z"
            fill="#043F62" />
        <path d="M150.421 25.5V51L170.179 39.0977L159.437 32.9601L169.316 27.2451V15.6016L150.421 25.5Z"
            fill="#FFCD03" />
        <path d="M177.525 43.5423L199.14 30.2082L179.042 19.8325V32.4519L169.316 27.2451L159.437 32.96L177.525 43.5423Z"
            fill="#009245" />
        <path
            d="M50.0279 6.8783V13.3103H54.2171V18.9041H50.0279V30.74C50.0279 31.7135 50.2001 32.3902 50.5467 32.7724C50.891 33.1547 51.5747 33.347 52.5929 33.347C53.3783 33.347 54.0353 33.2995 54.5687 33.2046V38.967C53.1408 39.43 51.6498 39.6603 50.0982 39.6603C47.3685 39.6603 45.3515 39.0073 44.0496 37.6991C42.7478 36.3932 42.0956 34.4083 42.0956 31.7444V18.9041H38.847V13.3103H42.0956V6.8783H50.0255H50.0279Z"
            fill="#FFFFFF" />
        <path
            d="M200.558 34.8026L207.268 14.3765H212.311L202.808 40.4867H198.364L188.897 14.3765H193.92L200.558 34.8026Z"
            fill="#FFFFFF" />
        <path
            d="M234.038 28.1141C234.038 30.6736 233.589 32.9173 232.695 34.8476C231.8 36.7779 230.52 38.2619 228.859 39.2947C227.196 40.3299 225.284 40.8451 223.119 40.8451C220.954 40.8451 219.07 40.3275 217.397 39.2947C215.722 38.2619 214.428 36.7874 213.516 34.8738C212.602 32.9601 212.141 30.7543 212.129 28.2566V26.7869C212.129 24.2416 212.585 21.9932 213.499 20.0439C214.413 18.0946 215.7 16.6035 217.363 15.5707C219.026 14.5379 220.934 14.0203 223.085 14.0203C225.235 14.0203 227.145 14.5307 228.806 15.5541C230.469 16.5774 231.754 18.0471 232.661 19.9655C233.567 21.884 234.028 24.1182 234.04 26.6634V28.1165L234.038 28.1141ZM229.449 26.7513C229.449 23.8594 228.896 21.6394 227.788 20.0985C226.68 18.5576 225.111 17.7859 223.08 17.7859C221.048 17.7859 219.545 18.5552 218.428 20.0914C217.31 21.6275 216.738 23.8 216.714 26.6088V28.1141C216.714 30.9823 217.278 33.2022 218.411 34.7669C219.54 36.3339 221.109 37.1151 223.119 37.1151C225.128 37.1151 226.714 36.3506 227.807 34.8191C228.901 33.2877 229.449 31.0535 229.449 28.1117V26.7489V26.7513Z"
            fill="#FFFFFF" />
        <path d="M254.058 18.0353H245.822V40.4867H241.269V18.0353H233.107V14.3765H254.055V18.0353H254.058Z"
            fill="#FFFFFF" />
        <path
            d="M276 28.1141C276 30.6736 275.552 32.9173 274.657 34.8476C273.762 36.7779 272.482 38.2619 270.822 39.2947C269.159 40.3299 267.246 40.8451 265.081 40.8451C262.916 40.8451 261.032 40.3275 259.36 39.2947C257.684 38.2619 256.39 36.7874 255.478 34.8738C254.564 32.9601 254.104 30.7543 254.092 28.2566V26.7869C254.092 24.2416 254.547 21.9932 255.461 20.0439C256.375 18.0946 257.663 16.6035 259.326 15.5707C260.989 14.5379 262.897 14.0203 265.047 14.0203C267.197 14.0203 269.108 14.5307 270.768 15.5541C272.431 16.5774 273.716 18.0471 274.623 19.9655C275.53 21.884 275.99 24.1182 276.002 26.6634V28.1165L276 28.1141ZM271.411 26.7513C271.411 23.8594 270.858 21.6394 269.75 20.0985C268.645 18.5552 267.074 17.7859 265.042 17.7859C263.011 17.7859 261.508 18.5552 260.39 20.0914C259.272 21.6275 258.7 23.8 258.676 26.6088V28.1141C258.676 30.9823 259.241 33.2022 260.373 34.7669C261.503 36.3339 263.071 37.1151 265.081 37.1151C267.091 37.1151 268.676 36.3506 269.77 34.8191C270.863 33.2877 271.411 31.0535 271.411 28.1117V26.7489V26.7513Z"
            fill="#FFFFFF" />
    </g>
    <defs>
        <clipPath id="clip0_182_374">
            <rect width="276" height="51" fill="white" />
        </clipPath>
    </defs>
</svg>